<svg width="440" height="168" viewBox="0 0 440 168" fill="none" xmlns="http://www.w3.org/2000/svg">
<path d="M67.1847 132.992C57.7182 132.992 48.9108 131.368 40.7625 128.12C32.7339 124.752 25.664 120.06 19.5528 114.045C13.5613 108.03 8.88801 101.053 5.53281 93.1128C2.1776 85.0526 0.5 76.391 0.5 67.1278C0.5 57.8647 2.1776 49.2632 5.53281 41.3233C8.88801 33.2632 13.5613 26.2857 19.5528 20.391C25.5442 14.4962 32.5542 9.92481 40.5827 6.67669C48.7311 3.30827 57.5385 1.62406 67.0049 1.62406C77.0705 1.62406 85.9978 3.24812 93.7867 6.49623C101.695 9.74435 108.586 14.1955 114.457 19.8496L95.5841 38.9774C92.2289 35.3684 88.1547 32.5413 83.3616 30.4962C78.6882 28.4511 73.236 27.4286 67.0049 27.4286C61.4928 27.4286 56.4001 28.391 51.7268 30.3158C47.1733 32.1203 43.2189 34.7669 39.8637 38.2556C36.6284 41.7444 34.052 45.9549 32.1348 50.8872C30.3374 55.8195 29.4386 61.2331 29.4386 67.1278C29.4386 73.1429 30.3374 78.6165 32.1348 83.5489C34.052 88.4812 36.6284 92.6917 39.8637 96.1805C43.2189 99.6692 47.1733 102.376 51.7268 104.301C56.4001 106.226 61.4928 107.188 67.0049 107.188C73.4757 107.188 79.1076 106.165 83.9008 104.12C88.6939 102.075 92.828 99.2481 96.3031 95.6391L115.356 114.767C109.245 120.421 102.235 124.872 94.3259 128.12C86.537 131.368 77.49 132.992 67.1847 132.992Z" fill="#1E1E1E"/>
<path d="M126.581 131.008V0H154.082V131.008H126.581Z" fill="#1E1E1E"/>
<path d="M213.71 132.992C204.723 132.992 196.575 131.008 189.265 127.038C182.076 122.947 176.384 117.414 172.19 110.436C167.996 103.459 165.899 95.6391 165.899 86.9774C165.899 78.3158 167.996 70.5564 172.19 63.6992C176.384 56.8421 182.076 51.4286 189.265 47.4586C196.455 43.3684 204.603 41.3233 213.71 41.3233C222.817 41.3233 230.966 43.3083 238.155 47.2782C245.345 51.2481 251.037 56.7218 255.231 63.6992C259.425 70.5564 261.522 78.3158 261.522 86.9774C261.522 95.6391 259.425 103.459 255.231 110.436C251.037 117.414 245.345 122.947 238.155 127.038C230.966 131.008 222.817 132.992 213.71 132.992ZM213.71 107.91C217.665 107.91 221.14 107.068 224.135 105.383C227.131 103.579 229.408 101.113 230.966 97.985C232.643 94.7368 233.482 91.0677 233.482 86.9774C233.482 82.8872 232.643 79.3383 230.966 76.3308C229.288 73.203 226.951 70.797 223.956 69.1128C221.08 67.3083 217.665 66.406 213.71 66.406C209.876 66.406 206.461 67.3083 203.465 69.1128C200.469 70.797 198.133 73.203 196.455 76.3308C194.777 79.4586 193.939 83.0677 193.939 87.1579C193.939 91.1278 194.777 94.7368 196.455 97.985C198.133 101.113 200.469 103.579 203.465 105.383C206.461 107.068 209.876 107.91 213.71 107.91Z" fill="#1E1E1E"/>
<path d="M305.23 133.173C300.078 133.173 294.985 132.511 289.952 131.188C285.039 129.865 280.426 128 276.112 125.594C271.918 123.068 268.323 120.18 265.328 116.932L280.965 101.053C283.841 104.18 287.256 106.647 291.211 108.451C295.165 110.135 299.479 110.977 304.152 110.977C307.387 110.977 309.844 110.496 311.522 109.534C313.319 108.571 314.218 107.248 314.218 105.564C314.218 103.398 313.139 101.774 310.982 100.692C308.945 99.4887 306.309 98.4662 303.074 97.6241C299.838 96.6617 296.423 95.6391 292.828 94.5564C289.233 93.4737 285.818 91.9699 282.583 90.0451C279.348 88.1203 276.711 85.4737 274.674 82.1053C272.637 78.6165 271.619 74.2256 271.619 68.9323C271.619 63.2782 273.056 58.406 275.932 54.3158C278.808 50.1053 282.882 46.797 288.155 44.391C293.427 41.985 299.599 40.782 306.668 40.782C314.098 40.782 320.928 42.1053 327.159 44.7519C333.51 47.2782 338.663 51.0677 342.617 56.1203L326.979 72C324.223 68.7519 321.108 66.4662 317.633 65.1429C314.278 63.8195 310.982 63.1579 307.747 63.1579C304.631 63.1579 302.295 63.6391 300.737 64.6015C299.179 65.4436 298.4 66.7068 298.4 68.391C298.4 70.1955 299.419 71.6391 301.456 72.7218C303.493 73.8045 306.129 74.7669 309.365 75.609C312.6 76.4511 316.015 77.4737 319.61 78.6767C323.205 79.8797 326.62 81.5038 329.855 83.5489C333.091 85.594 335.727 88.3609 337.764 91.8496C339.801 95.218 340.82 99.6692 340.82 105.203C340.82 113.744 337.584 120.541 331.113 125.594C324.763 130.647 316.135 133.173 305.23 133.173Z" fill="#1E1E1E"/>
<path d="M380.904 131.368L344.955 43.3083H374.613L397.44 113.143H386.476L409.842 43.3083H439.5L402.113 131.368H380.904ZM358.436 168L384.678 111.158L402.113 131.368L386.656 168H358.436Z" fill="#1E1E1E"/>
</svg>
