<svg width="32" height="32" viewBox="0 0 32 32" fill="none" xmlns="http://www.w3.org/2000/svg">
<path d="M15.672 15.8438L6.12891 25.842C6.23606 26.2218 6.42864 26.572 6.69191 26.866C6.95518 27.16 7.28219 27.3898 7.64792 27.538C8.01365 27.6863 8.40842 27.7489 8.80207 27.7211C9.19571 27.6934 9.5778 27.576 9.91913 27.378L20.6569 21.2624L15.672 15.8438Z" fill="#EA4335"/>
<path d="M25.3224 14.1439L20.6788 11.4844L15.4521 16.071L20.7001 21.2479L25.3081 18.6168C25.7164 18.4031 26.0583 18.0817 26.2969 17.6874C26.5355 17.2932 26.6616 16.8412 26.6616 16.3804C26.6616 15.9196 26.5355 15.4675 26.2969 15.0733C26.0583 14.6791 25.7164 14.3577 25.3081 14.1439H25.3224Z" fill="#FBBC04"/>
<path d="M6.12931 6.86914C6.07162 7.08239 6.04292 7.30245 6.04397 7.52336V25.1874C6.04455 25.4082 6.07323 25.628 6.12931 25.8416L15.9995 16.0994L6.12931 6.86914Z" fill="#4285F4"/>
<path d="M15.7431 16.3553L20.6782 11.4842L9.95468 5.34021C9.55126 5.10394 9.09243 4.9788 8.62491 4.97754C8.06027 4.97643 7.51076 5.15996 7.06013 5.50018C6.6095 5.8404 6.28247 6.31864 6.12891 6.86199L15.7431 16.3553Z" fill="#34A853"/>
</svg>
