<svg width="32" height="32" viewBox="0 0 32 32" fill="none" xmlns="http://www.w3.org/2000/svg">
<path d="M24.7775 12.5256C23.2232 13.4856 22.2632 15.1313 22.2632 16.9599C22.2632 19.017 23.4975 20.8913 25.3718 21.6684C25.0061 22.857 24.4575 23.9541 23.7718 24.9599C22.7661 26.377 21.7147 27.8399 20.1604 27.8399C18.6061 27.8399 18.149 26.9256 16.3204 26.9256C14.5375 26.9256 13.8975 27.8856 12.4347 27.8856C10.9718 27.8856 9.9661 26.5599 8.82325 24.9141C7.31468 22.6284 6.4461 19.977 6.40039 17.1884C6.40039 12.6627 9.3261 10.2399 12.2518 10.2399C13.8061 10.2399 15.0861 11.2456 16.0461 11.2456C16.9604 11.2456 18.4232 10.1941 20.1604 10.1941C21.989 10.1484 23.7261 11.017 24.7775 12.5256ZM19.3375 8.27415C20.1147 7.35986 20.5261 6.217 20.5718 5.02843C20.5718 4.89129 20.5718 4.70843 20.5261 4.57129C19.2004 4.70843 17.9661 5.34843 17.0975 6.35415C16.3204 7.22272 15.8632 8.31986 15.8175 9.50843C15.8175 9.64558 15.8175 9.78272 15.8632 9.91986C15.9547 9.91986 16.0918 9.96557 16.1832 9.96557C17.4175 9.87415 18.5604 9.23415 19.3375 8.27415Z" fill="black"/>
</svg>
    