<svg width="352" height="108" viewBox="0 0 352 108" fill="none" xmlns="http://www.w3.org/2000/svg">
<rect y="0.186768" width="107.626" height="107.626" rx="35.0004" fill="url(#paint0_linear_850_8506)"/>
<path d="M146.926 80.2782L146.939 80.2949L146.953 80.3109C148.222 81.7802 149.98 82.4792 152.109 82.4792C155.476 82.4792 158.623 81.3923 161.529 79.2571C164.394 77.152 166.977 74.3597 169.284 70.8994C171.639 67.3957 173.645 63.5245 175.305 59.289C177.019 55.0044 178.333 50.6605 179.248 46.2577C180.163 41.8549 180.623 37.6688 180.623 33.7013C180.623 32.3631 180.536 31.0518 180.361 29.7678C180.18 28.4433 179.812 27.298 179.22 26.3718C178.527 25.2264 177.398 24.687 176.018 24.687C175.002 24.687 173.913 24.9893 172.77 25.5298C171.671 26.0194 170.688 26.6642 169.826 27.4643C168.909 28.3166 168.36 29.3256 168.36 30.4795C168.36 31.3454 168.676 32.3865 169.2 33.5516L169.2 33.5517L169.205 33.5626C169.558 34.3182 169.88 35.3983 170.156 36.834L170.16 36.8535L170.165 36.8729C170.481 38.1917 170.649 39.9803 170.649 42.2644C170.649 45.9767 170.178 49.5148 169.24 52.8819C168.298 56.263 167.027 59.2687 165.434 61.9058L165.434 61.9057L165.427 61.9173C163.886 64.559 162.171 66.6171 160.295 68.1185L160.295 68.1185L160.285 68.1264C158.484 69.6098 156.696 70.3007 154.906 70.3007C154.101 70.3007 153.743 70.094 153.576 69.8923C153.476 69.7419 153.359 69.4652 153.262 69.0031C153.163 68.5327 153.095 67.9242 153.068 67.166C152.954 61.8134 152.441 56.2666 151.532 50.526C150.676 44.7067 149.276 39.4404 147.325 34.7331C146.175 31.7439 144.86 29.3586 143.36 27.619C141.799 25.8074 139.869 24.8566 137.611 24.8566C135.7 24.8566 133.999 25.5005 132.543 26.767L132.536 26.7733L132.528 26.7798C131.169 28.0152 130.377 29.4203 130.377 30.9882C130.377 31.7052 130.558 32.3709 130.964 32.9381L130.983 32.9646L131.003 32.9897C131.324 33.3741 131.726 33.7743 132.202 34.1902L132.216 34.2029L132.231 34.215C134.94 36.3818 137.061 39.1768 138.591 42.6198L138.595 42.6275L138.598 42.6352C140.209 46.0779 141.49 49.8621 142.438 53.991L142.441 54.0011L142.443 54.0112C143.167 56.8523 143.726 59.9229 144.118 63.2244L144.119 63.2326L144.12 63.2408C144.568 66.4891 144.848 69.7656 144.96 73.0706L144.96 73.0792L144.961 73.0878C145.132 76.2926 145.735 78.7566 146.926 80.2782Z" fill="#7702F3" stroke="#7702F3" stroke-width="1.75002"/>
<path d="M45.4247 80.2782L45.4377 80.2949L45.4516 80.3109C46.7205 81.7802 48.4789 82.4792 50.6073 82.4792C53.9752 82.4792 57.1215 81.3923 60.0277 79.2571C62.893 77.152 65.4755 74.3597 67.7826 70.8994C70.1374 67.3957 72.1438 63.5245 73.8039 59.289C75.5175 55.0044 76.8322 50.6605 77.7471 46.2577C78.6619 41.8549 79.1219 37.6688 79.1219 33.7013C79.1219 32.3631 79.0346 31.0518 78.8595 29.7678C78.6789 28.4433 78.3109 27.298 77.7183 26.3718C77.0257 25.2264 75.8971 24.687 74.5164 24.687C73.5007 24.687 72.4122 24.9893 71.2687 25.5298C70.1698 26.0194 69.187 26.6642 68.3253 27.4643C67.4075 28.3166 66.8587 29.3256 66.8587 30.4795C66.8587 31.3454 67.1745 32.3865 67.6988 33.5516L67.6987 33.5517L67.7038 33.5626C68.0565 34.3182 68.3788 35.3983 68.6549 36.834L68.6587 36.8535L68.6633 36.8729C68.9798 38.1917 69.1478 39.9803 69.1478 42.2644C69.1478 45.9767 68.677 49.5148 67.7386 52.8819C66.7964 56.263 65.5257 59.2687 63.9325 61.9058L63.9324 61.9057L63.9257 61.9173C62.3847 64.559 60.6702 66.6171 58.7935 68.1185L58.7934 68.1185L58.7838 68.1264C56.9825 69.6098 55.1946 70.3007 53.4052 70.3007C52.5998 70.3007 52.2415 70.094 52.0746 69.8923C51.9751 69.7419 51.8576 69.4652 51.7603 69.0031C51.6613 68.5327 51.5941 67.9242 51.5668 67.166C51.4526 61.8134 50.9402 56.2666 50.031 50.526C49.1749 44.7067 47.7748 39.4404 45.8242 34.7331C44.6736 31.7439 43.3587 29.3586 41.8591 27.619C40.2974 25.8074 38.3679 24.8566 36.1093 24.8566C34.1989 24.8566 32.498 25.5005 31.0416 26.767L31.0343 26.7733L31.0271 26.7798C29.6682 28.0152 28.8755 29.4203 28.8755 30.9882C28.8755 31.7052 29.0573 32.3709 29.4624 32.9381L29.4813 32.9646L29.5022 32.9897C29.8225 33.3741 30.2251 33.7743 30.7004 34.1902L30.7149 34.2029L30.73 34.215C33.4385 36.3818 35.5599 39.1768 37.0902 42.6198L37.0936 42.6275L37.0972 42.6352C38.7075 46.0779 39.9885 49.8621 40.937 53.991L40.9393 54.0011L40.9419 54.0112C41.6661 56.8523 42.2249 59.9229 42.6166 63.2244L42.6175 63.2326L42.6187 63.2408C43.0667 66.4891 43.3468 69.7656 43.4588 73.0706L43.4591 73.0792L43.4596 73.0878C43.6313 76.2926 44.2339 78.7566 45.4247 80.2782Z" fill="white" stroke="white" stroke-width="1.75002"/>
<path d="M18.6207 52.1499C18.1277 51.5688 18.5219 50.644 19.2823 50.594C23.0682 50.3446 25.402 49.4234 27.8745 47.1468C28.4698 46.5986 29.5063 47.0075 29.5648 47.8147C29.8095 51.1927 30.8517 53.4602 33.3032 56.2186C33.8136 56.793 33.4325 57.7396 32.6676 57.8125C29.2017 58.1431 26.8778 59.1843 23.9765 61.5815C23.3897 62.0663 22.469 61.66 22.4124 60.901C22.1534 57.4321 21.0978 55.0699 18.6207 52.1499Z" fill="white"/>
<path d="M209.862 84.4271C205.058 84.4271 200.875 83.438 197.314 81.4597C193.81 79.4249 191.097 76.6835 189.175 73.2357C187.31 69.7878 186.377 65.8877 186.377 61.5355C186.377 56.4484 187.395 52.1245 189.429 48.5635C191.521 44.9461 194.234 42.1765 197.569 40.2547C200.904 38.333 204.436 37.3721 208.167 37.3721C211.049 37.3721 213.762 37.9656 216.306 39.1525C218.906 40.3395 221.195 41.9787 223.173 44.07C225.152 46.1048 226.706 48.4788 227.837 51.1918C229.024 53.9049 229.617 56.7876 229.617 59.8398C229.56 61.1963 229.024 62.2985 228.006 63.1464C226.989 63.9942 225.802 64.4181 224.445 64.4181H196.448C195.565 62.3124 196.002 57.9374 196.546 55.9397H218.765V55.3463C218.652 53.7071 218.058 52.2375 216.984 50.9375C215.967 49.6375 214.667 48.6201 213.084 47.8853C211.558 47.094 209.919 46.6983 208.167 46.6983C206.471 46.6983 204.888 46.9244 203.419 47.3766C201.949 47.8288 200.677 48.5918 199.603 49.6657C198.53 50.7397 197.682 52.181 197.06 53.9897C196.438 55.7984 196.127 58.0876 196.127 60.8572C196.127 63.9094 196.749 66.5095 197.993 68.6573C199.293 70.7487 200.932 72.3596 202.91 73.49C204.945 74.5639 207.093 75.1009 209.354 75.1009C211.445 75.1009 213.112 74.9313 214.356 74.5922C215.599 74.2531 216.589 73.8574 217.323 73.4052C218.115 72.8965 218.821 72.4726 219.443 72.1335C220.46 71.6248 221.421 71.3704 222.326 71.3704C223.569 71.3704 224.586 71.7943 225.378 72.6422C226.226 73.49 226.65 74.4792 226.65 75.6096C226.65 77.1357 225.858 78.5205 224.276 79.764C222.806 81.0075 220.743 82.1097 218.086 83.0706C215.43 83.975 212.688 84.4271 209.862 84.4271Z" fill="#7702F3"/>
<path d="M236.149 76.5422C235.583 75.7509 235.329 74.7335 235.386 73.49C235.442 72.2465 236.177 71.1726 237.59 70.2682C238.494 69.703 239.455 69.4769 240.473 69.59C241.49 69.6465 242.479 70.1552 243.44 71.1161C245.079 72.7552 246.803 74.027 248.612 74.9313C250.421 75.8357 252.682 76.2879 255.395 76.2879C256.242 76.2314 257.175 76.1183 258.193 75.9487C259.21 75.7227 260.086 75.2705 260.821 74.5922C261.612 73.8574 262.008 72.7552 262.008 71.2856C262.008 70.0421 261.584 69.053 260.736 68.3182C259.888 67.5834 258.758 66.9617 257.345 66.4529C255.988 65.9442 254.462 65.4638 252.766 65.0116C251.014 64.5029 249.205 63.9377 247.34 63.3159C245.531 62.6942 243.864 61.9029 242.338 60.942C240.812 59.9246 239.568 58.5963 238.607 56.9572C237.647 55.318 237.166 53.2549 237.166 50.7679C237.166 47.9418 237.957 45.5396 239.54 43.5613C241.123 41.583 243.157 40.0569 245.644 38.983C248.188 37.909 250.845 37.3721 253.614 37.3721C255.366 37.3721 257.203 37.5982 259.125 38.0503C261.047 38.446 262.884 39.1243 264.636 40.0852C266.388 40.9895 267.858 42.2048 269.045 43.7309C269.667 44.5787 270.034 45.5961 270.147 46.7831C270.26 47.9701 269.723 49.044 268.536 50.0049C267.688 50.6831 266.699 50.994 265.569 50.9375C264.438 50.8244 263.506 50.4288 262.771 49.7505C261.81 48.507 260.51 47.5179 258.871 46.7831C257.288 46.0483 255.451 45.6809 253.36 45.6809C252.512 45.6809 251.579 45.7939 250.562 46.02C249.601 46.1896 248.753 46.6135 248.018 47.2918C247.284 47.9135 246.916 48.9309 246.916 50.344C246.916 51.644 247.34 52.6897 248.188 53.481C249.036 54.2158 250.166 54.8376 251.579 55.3463C253.049 55.7984 254.603 56.2506 256.242 56.7028C257.938 57.155 259.662 57.6919 261.414 58.3137C263.167 58.9354 264.777 59.755 266.247 60.7724C267.717 61.7898 268.904 63.1181 269.808 64.7573C270.712 66.3399 271.164 68.3747 271.164 70.8617C271.164 73.7444 270.317 76.2031 268.621 78.2379C266.925 80.2727 264.806 81.8271 262.262 82.901C259.719 83.9184 257.119 84.4271 254.462 84.4271C251.127 84.4271 247.792 83.8619 244.458 82.7315C241.123 81.5445 238.353 79.4814 236.149 76.5422Z" fill="#7702F3"/>
<path d="M281.251 40.0951H301.345C302.701 40.0951 303.832 40.5472 304.736 41.4516C305.641 42.356 306.093 43.4864 306.093 44.843C306.093 46.143 305.641 47.2452 304.736 48.1495C303.832 48.9974 302.701 49.4213 301.345 49.4213H281.251C279.895 49.4213 278.764 48.9691 277.86 48.0647C276.955 47.1604 276.503 46.0299 276.503 44.6734C276.503 43.3734 276.955 42.2994 277.86 41.4516C278.764 40.5472 279.895 40.0951 281.251 40.0951ZM290.323 29.4971C291.793 29.4971 292.98 30.0058 293.884 31.0232C294.845 31.9841 295.325 33.1993 295.325 34.6689V72.3977C295.325 73.189 295.467 73.8391 295.749 74.3478C296.088 74.8565 296.512 75.2239 297.021 75.4499C297.586 75.676 298.18 75.7891 298.801 75.7891C299.48 75.7891 300.101 75.676 300.667 75.4499C301.232 75.1673 301.882 75.026 302.617 75.026C303.408 75.026 304.114 75.3934 304.736 76.1282C305.414 76.863 305.754 77.8804 305.754 79.1804C305.754 80.7631 304.878 82.0631 303.125 83.0805C301.43 84.0979 299.593 84.6066 297.614 84.6066C296.427 84.6066 295.099 84.5218 293.63 84.3523C292.216 84.1262 290.86 83.6457 289.56 82.9109C288.316 82.1196 287.271 80.9326 286.423 79.35C285.575 77.7674 285.151 75.5913 285.151 72.8216V34.6689C285.151 33.1993 285.632 31.9841 286.592 31.0232C287.61 30.0058 288.853 29.4971 290.323 29.4971Z" fill="#7702F3"/>
<path d="M346.913 39.1221C348.383 39.1221 349.598 39.6308 350.559 40.6482C351.52 41.6091 352 42.8243 352 44.2939V80.327C352 85.5271 351.011 89.6533 349.033 92.7055C347.111 95.8142 344.511 98.0469 341.233 99.4034C337.954 100.76 334.28 101.438 330.211 101.438C328.402 101.438 326.48 101.297 324.445 101.014C322.411 100.732 320.743 100.308 319.443 99.7426C317.747 99.0078 316.56 98.0752 315.882 96.9447C315.26 95.8708 315.147 94.7121 315.543 93.4686C316.052 91.8294 316.871 90.699 318.002 90.0772C319.132 89.512 320.319 89.4555 321.563 89.9076C322.467 90.1902 323.654 90.6142 325.124 91.1794C326.593 91.8011 328.289 92.112 330.211 92.112C332.811 92.112 334.959 91.7446 336.654 91.0098C338.406 90.3316 339.706 89.1446 340.554 87.4489C341.459 85.8097 341.911 83.5488 341.911 80.6662V79.7074C341.911 79.6896 341.515 80.4401 340.046 81.6836C338.633 82.8706 336.937 83.7749 334.959 84.3967C332.98 85.0184 330.719 85.3293 328.176 85.3293C325.18 85.3293 322.552 84.651 320.291 83.2945C318.087 81.8814 316.363 79.9597 315.119 77.5292C313.876 75.0422 313.254 72.2161 313.254 69.0508V44.2939C313.254 42.8243 313.734 41.6091 314.695 40.6482C315.656 39.6308 316.871 39.1221 318.341 39.1221C319.811 39.1221 321.026 39.6308 321.987 40.6482C322.948 41.6091 323.428 42.8243 323.428 44.2939V65.9986C323.428 69.6725 324.219 72.2726 325.802 73.7987C327.441 75.2683 329.702 76.0031 332.585 76.0031C334.563 76.0031 336.23 75.6357 337.587 74.9009C338.943 74.1096 339.989 72.9791 340.724 71.5095C341.459 69.9834 341.826 68.1464 341.826 65.9986V44.2939C341.826 42.8243 342.307 41.6091 343.267 40.6482C344.228 39.6308 345.444 39.1221 346.913 39.1221Z" fill="#7702F3"/>
<defs>
<linearGradient id="paint0_linear_850_8506" x1="102.376" y1="3.6868" x2="9.18763" y2="105.188" gradientUnits="userSpaceOnUse">
<stop stop-color="#7702F3"/>
<stop offset="1" stop-color="#DD00FF"/>
</linearGradient>
</defs>
</svg>
