<svg width="479" height="199" viewBox="0 0 479 199" fill="none" xmlns="http://www.w3.org/2000/svg">
<circle cx="239" cy="100" r="99" fill="#EBEEFF"/>
<path d="M102.926 140.259C111.554 136.718 119.205 131.864 125.876 125.698L126.257 125.346L125.89 124.978L105.232 104.256L104.872 103.895L104.518 104.262C100.798 108.122 96.3719 111.147 91.2339 113.337C86.1119 115.521 80.0747 116.62 73.1101 116.62C67.1935 116.62 61.7375 115.589 56.7365 113.531C51.8625 111.472 47.6334 108.579 44.0447 104.852C40.5866 101.125 37.8266 96.6223 35.7689 91.3349C33.8439 86.0551 32.8777 80.186 32.8777 73.7218C32.8777 67.3891 33.8436 61.5849 35.769 56.3041C37.8267 51.0167 40.5867 46.5136 44.0448 42.7871C47.6319 39.0614 51.8582 36.2353 56.7284 34.307L56.7284 34.307L56.7346 34.3045C61.7361 32.2463 67.1928 31.2143 73.1101 31.2143C79.8124 31.2143 85.6534 32.3132 90.645 34.4957L90.6493 34.4975C95.7858 36.6872 100.144 39.7106 103.732 43.5662L104.087 43.948L104.454 43.5769L124.917 22.8551L125.273 22.4947L124.908 22.1434C118.495 15.9726 110.97 11.1169 102.34 7.57543C93.8234 4.02726 84.077 2.2594 73.1101 2.2594C62.7859 2.2594 53.1713 4.0948 44.2718 7.77026C35.5084 11.3128 27.8523 16.3007 21.3081 22.7337C14.7625 29.1679 9.65859 36.7828 5.99597 45.5733C2.33036 54.2406 0.5 63.6253 0.5 73.7218C0.5 83.8188 2.33054 93.2681 5.99543 102.064L5.99648 102.067C9.65908 110.727 14.7621 118.339 21.3045 124.902L21.308 124.905C27.9804 131.467 35.6997 136.585 44.4625 140.258L44.4709 140.262C53.3694 143.806 62.9824 145.575 73.305 145.575C84.5305 145.575 94.4077 143.808 102.926 140.259ZM102.926 140.259C102.925 140.259 102.924 140.259 102.924 140.26L102.734 139.797M102.926 140.259C102.926 140.259 102.926 140.259 102.926 140.259L102.734 139.797M102.734 139.797C94.2884 143.316 84.4789 145.075 73.305 145.075C63.0407 145.075 53.491 143.316 44.6559 139.797L43.6814 105.195C47.3194 108.975 51.607 111.907 56.5443 113.992C61.6115 116.078 67.1334 117.12 73.1101 117.12C80.1263 117.12 86.2329 116.013 91.43 113.797C96.4675 111.65 100.834 108.706 104.528 104.967L104.523 104.962L104.878 104.609L104.878 104.609L105.238 104.956C105.235 104.958 105.233 104.961 105.231 104.963L125.183 124.976C125.188 124.972 125.192 124.968 125.197 124.964L125.536 125.331L125.182 125.684L125.168 125.669C118.628 131.634 111.15 136.343 102.734 139.797ZM137.208 142.925V143.425H137.708H167.526H168.026V142.925V1V0.5H167.526H137.708H137.208V1V142.925ZM205.428 139.059L205.436 139.064C213.441 143.407 222.359 145.575 232.18 145.575C242.13 145.575 251.05 143.408 258.927 139.062L258.933 139.059C266.802 134.586 273.036 128.531 277.629 120.897C282.226 113.255 284.522 104.694 284.522 95.2256C284.522 85.7574 282.226 77.2597 277.627 69.7465C273.034 62.113 266.798 56.1225 258.927 51.7802C251.05 47.4344 242.13 45.2669 232.18 45.2669C222.229 45.2669 213.308 47.5002 205.431 51.9773C197.562 56.3188 191.327 62.2431 186.734 69.7465C182.134 77.2597 179.839 85.7574 179.839 95.2256C179.839 104.694 182.134 113.255 186.732 120.897C191.324 128.531 197.559 134.586 205.428 139.059ZM250.446 106.921L250.442 106.927C248.797 110.228 246.396 112.828 243.233 114.733C240.071 116.507 236.392 117.402 232.18 117.402C228.101 117.402 224.486 116.509 221.323 114.733C218.157 112.826 215.689 110.224 213.913 106.917C212.135 103.476 211.242 99.6473 211.242 95.4211C211.242 91.0599 212.137 87.2336 213.911 83.9282C215.687 80.6206 218.154 78.0846 221.316 76.3081L221.323 76.3044L221.329 76.3006C224.492 74.397 228.104 73.4398 232.18 73.4398C236.39 73.4398 239.997 74.3986 243.024 76.2958L243.034 76.3022L243.044 76.3081C246.207 78.0846 248.674 80.6206 250.449 83.9283L250.453 83.9355C252.224 87.1063 253.118 90.8638 253.118 95.2256C253.118 99.5863 252.224 103.481 250.446 106.921ZM314.718 143.603L314.721 143.604C320.219 145.048 325.784 145.771 331.414 145.771C343.31 145.771 352.786 143.017 359.787 137.454C366.929 131.881 370.503 124.37 370.503 114.97C370.503 108.921 369.389 104 367.119 100.248C364.872 96.405 361.96 93.3486 358.381 91.0885C354.84 88.8517 351.1 87.075 347.164 85.7589C343.257 84.4525 339.543 83.3414 336.022 82.4259C332.537 81.5194 329.718 80.4888 327.556 79.3404C325.457 78.2257 324.508 76.8065 324.508 75.0902C324.508 74.2579 324.7 73.5531 325.067 72.9581C325.435 72.3617 325.997 71.8475 326.779 71.4249L326.792 71.418L326.804 71.4104C328.377 70.4398 330.799 69.921 334.142 69.921C337.581 69.921 341.092 70.6234 344.678 72.0366L344.684 72.0387C348.362 73.4382 351.673 75.8597 354.615 79.3237L354.968 79.7401L355.352 79.351L372.308 62.148L372.616 61.8348L372.345 61.4887C368 55.9421 362.341 51.786 355.381 49.0186C348.558 46.1243 341.087 44.6805 332.973 44.6805C325.251 44.6805 318.486 45.9933 312.692 48.6353C306.905 51.2736 302.413 54.9113 299.237 59.5559C296.052 64.0816 294.469 69.463 294.469 75.6767C294.469 81.4729 295.585 86.3235 297.851 90.1997L297.855 90.2063C300.104 93.9224 303.02 96.8496 306.602 98.9787C310.145 101.085 313.885 102.73 317.822 103.915C321.721 105.088 325.424 106.196 328.933 107.239L328.941 107.241L328.949 107.243C332.429 108.148 335.24 109.241 337.396 110.513L337.411 110.522L337.426 110.53C338.536 111.086 339.339 111.767 339.865 112.559C340.389 113.347 340.659 114.275 340.659 115.361C340.659 116.959 339.827 118.243 337.999 119.221L337.993 119.224L337.987 119.228C336.278 120.207 333.717 120.726 330.245 120.726C325.241 120.726 320.633 119.825 316.414 118.031C312.188 116.103 308.542 113.472 305.471 110.135L305.116 109.749L304.747 110.123L287.792 127.326L287.457 127.665L287.78 128.016C291.064 131.573 295 134.73 299.584 137.489L299.591 137.493L299.598 137.497C304.312 140.124 309.353 142.159 314.718 143.603ZM410.093 136.384L388.65 182.79L388.322 183.5H389.104H419.702H420.033L420.162 183.195L436.923 143.511L436.923 143.51L477.46 48.1128L477.756 47.4173H477H444.843H444.483L444.369 47.7585L425.526 104.024L407.119 47.7618L407.006 47.4173H406.644H374.487H373.742L374.024 48.1064L410.093 136.384Z" fill="#1E1E1E" stroke="black"/>
</svg>
