<svg width="300" height="168" viewBox="0 0 300 168" fill="none" xmlns="http://www.w3.org/2000/svg">
<g opacity="0.2">
<path d="M62.7861 103.609C64.5997 103.819 66.4133 104.029 68.2036 104.364C69.7056 104.854 71.1848 105.407 72.6636 105.975C73.3564 107.383 74.7107 108.224 75.8079 109.282C76.9445 111.562 77.9019 113.936 79.2484 116.114L77.9409 116.372L77.6837 116.434C77.1469 116.675 76.0805 117.157 75.5433 117.398C71.6826 112.784 67.861 108.092 63.3154 104.115L62.7861 103.609Z" fill="#FEFEFE"/>
<path d="M107.947 148.028C115.676 146.736 123.031 143.826 129.998 140.308C129.865 145.164 129.982 150.028 129.889 154.884C124.58 157.724 119.708 161.405 115.334 165.529C114.182 166.673 113.076 167.864 112.072 169.14C108.181 173.739 106.421 179.637 106.001 185.559C104.086 177.272 101.417 169.109 100.521 160.619C101.113 158.572 101.432 156.401 102.553 154.549C103.915 152.043 106.188 150.23 107.947 148.028Z" fill="#FEFEFE"/>
<path d="M180.747 1.4809C182.069 1.6443 183.393 1.83108 184.708 2.04118C188.538 6.9515 189.261 15.4727 183.852 19.488C183.642 16.7019 183.603 13.9084 183.688 11.1227C183.354 13.0371 183.144 14.9668 183.144 16.9122C182.902 17.1378 182.412 17.6048 182.163 17.8383L181.307 18.2895C179.999 15.4802 179.587 12.3677 178.31 9.55052C177.182 7.02155 177.073 3.11506 179.968 1.73769C179.883 2.59367 179.695 4.30568 179.602 5.16946C180.497 4.13448 180.513 2.74932 180.747 1.4809Z" fill="#698E90"/>
<path d="M183.144 16.9122C183.144 14.9668 183.354 13.0371 183.688 11.1227C183.603 13.9084 183.642 16.702 183.852 19.4881C185.79 37.044 187.261 54.6774 187.674 72.3499L188.904 72.2877C190.32 69.1047 192.912 66.5911 194.516 63.4786C194.858 62.825 195.208 62.1789 195.566 61.5332C195.979 60.5992 196.391 59.6732 196.812 58.7396C198.742 53.8679 199.178 48.5375 198.314 43.3859C198.322 41.9928 198.384 40.6002 198.454 39.215C198.734 40.7478 199.007 42.2885 199.302 43.8296C201.482 53.0741 197.489 62.397 192.344 69.9217C191.099 72.2176 188.911 73.8595 187.775 76.2018C187.705 89.2364 187.386 102.31 185.938 115.282C194.625 107.103 200.159 96.3099 204.704 85.4389C205.701 82.902 206.704 80.2951 206.798 77.5401C207.156 73.7815 206.712 70.0465 206.136 66.3423C206.93 69.2217 207.529 72.1629 207.818 75.1356C207.452 82.7619 204.183 89.82 201.1 96.6678C197.551 104.714 192.609 112.294 185.868 118.021C185.222 125.725 184.529 133.437 183.338 141.079C182.015 146.526 180.879 152.012 179.945 157.529C179.719 158.479 179.548 159.436 179.353 160.393L178.839 160.627C173.189 154.899 170.013 147.242 168.301 139.491C167.086 134.417 167.763 129.235 168.332 124.145C168.511 120.722 168.083 117.313 168.083 113.905C168.301 117.391 168.791 120.854 168.939 124.348C167.577 135.841 170.511 148.44 178.707 156.915C179.548 152.168 180.677 147.475 181.688 142.759C182.568 136.581 182.871 130.348 183.696 124.161C179.151 118.161 176.699 110.901 174.746 103.718C172.706 96.2166 172.013 88.4269 172.044 80.6762C171.975 78.443 171.967 76.1786 172.511 73.9918C172.644 76.3109 172.698 78.6296 172.846 80.9487C173.119 90.4271 174.792 99.913 178.139 108.8C179.649 112.815 181.346 116.831 183.907 120.309C185.665 101.734 186.74 83.0497 185.775 64.3968C182.918 62.397 180.988 59.3853 179.439 56.3272C177.477 52.3662 175.897 48.1717 175.251 43.7828L175.788 42.9658L175.967 42.95C178.186 49.4789 180.606 56.2882 185.634 61.2454C185.292 50.2574 184.381 39.2926 183.65 28.3282C183.292 24.8031 183.175 21.2158 182.163 17.8383C182.412 17.6048 182.902 17.1378 183.144 16.9122Z" fill="#030403"/>
<path d="M29.2633 43.2071C29.9324 43.7595 30.4306 44.4364 30.7732 45.238C30.6799 45.4869 30.4928 45.9774 30.3995 46.2184C29.8158 45.8215 29.3019 45.3546 28.8506 44.8179C28.9518 44.4131 29.1621 43.6115 29.2633 43.2071Z" fill="#1A1C1C"/>
<path d="M32.0882 45.2301C31.8393 42.7012 34.6334 45.1758 32.0882 45.2301V45.2301Z" fill="#1A1C1C"/>
<path d="M28.6402 51.2767C29.8623 49.3077 31.1544 47.3622 32.0885 45.2301C32.0496 45.9849 31.9641 47.487 31.9251 48.2418C31.5514 50.8176 30.0726 53.1521 28.2822 54.9964C28.3834 53.7514 28.5004 52.5139 28.6402 51.2767Z" fill="#1A1C1C"/>
<path d="M83.6309 76.8164C86.5889 77.1279 88.799 79.3533 90.7449 81.392C88.3946 79.836 86.0359 78.2874 83.6309 76.8164Z" fill="#1A1C1C"/>
<path d="M35.3184 84.9872C35.661 84.6841 36.338 84.0848 36.6727 83.7812C38.821 90.6838 41.3817 97.4458 43.7557 104.27C43.1874 104.652 42.6269 105.049 42.0902 105.469C39.7863 98.6522 37.4123 91.8666 35.3184 84.9872Z" fill="#1A1C1C"/>
<path d="M62.6703 100.341C63.4016 100.769 64.1258 101.205 64.8572 101.633C64.7638 101.991 64.585 102.714 64.4913 103.072C64.7406 103.088 65.2467 103.103 65.4956 103.111C66.8267 103.197 68.1499 103.306 69.4807 103.407C69.1617 103.648 68.5233 104.123 68.2043 104.364C66.414 104.03 64.6004 103.819 62.7868 103.609L63.3161 104.115C62.9349 103.827 62.5454 103.563 62.1484 103.306C62.3434 102.325 62.5143 101.329 62.6703 100.341Z" fill="#1A1C1C"/>
<path d="M53.5244 115.305C59.0974 120.83 63.0514 127.686 67.0444 134.363C70.2978 139.164 74.4932 144.635 80.7668 145.078C78.1825 142.736 75.0225 140.931 73.1546 137.896C69.7141 133.273 67.9628 127.717 65.9704 122.379C67.387 124.931 68.3287 127.694 69.4574 130.371C71.9404 136.137 75.8164 141.351 81.2493 144.643C82.9151 144.744 84.5731 144.829 86.2386 144.915L85.3356 143.88C85.7172 144.246 86.0909 144.619 86.4643 145.001L86.7136 145.273C85.5305 145.195 84.464 145.67 83.4133 146.137C83.3897 145.872 83.3353 145.335 83.3042 145.063C81.148 145.258 78.8442 145.553 76.8439 144.479C70.0721 141.195 65.8456 134.596 62.4209 128.169C60.0469 123.492 56.6612 119.469 53.5244 115.305Z" fill="#1A1C1C"/>
<path d="M234.81 120.27C235.332 120.309 236.39 120.387 236.92 120.426C237.021 120.986 237.114 121.546 237.208 122.114C237.013 128.208 235.098 134.168 233.69 140.09C233.067 142.643 232.794 145.265 232.358 147.864C231.533 152.697 230.965 157.576 230.249 162.432C229.953 163.872 229.712 165.397 228.864 166.642L228.358 167.031C227.688 166.836 227.027 166.626 226.365 166.416C227.214 166.167 228.568 166.136 228.623 164.953C228.942 158.93 229.891 152.961 230.833 147.001C231.214 144.853 231.705 142.72 232.133 140.58C233.549 133.849 235.698 127.289 236.787 120.496C236.289 120.441 235.301 120.325 234.81 120.27Z" fill="#1A1C1C"/>
<path d="M40.3154 136.098C43.3975 134.931 46.5575 133.981 49.6243 132.775C49.7956 133.04 50.1536 133.585 50.3249 133.849C47.0794 135.126 43.67 135.896 40.3387 136.908C40.3387 136.705 40.3229 136.301 40.3154 136.098Z" fill="#1A1C1C"/>
<path d="M42.4639 148.682C47.6167 145.911 53.322 144.332 58.615 141.857C58.9651 142.067 59.6579 142.487 60.008 142.705C54.3885 145.281 48.5741 147.584 42.4639 148.682Z" fill="#1A1C1C"/>
<path d="M202.189 146.767C203.178 146.292 204.198 145.686 205.357 145.833C205.108 146.191 204.61 146.907 204.361 147.265C204.673 147.646 205.287 148.409 205.599 148.79C203.925 150.386 202.921 147.841 202.189 146.767Z" fill="#1A1C1C"/>
<path d="M26.2666 154.409C27.3716 151.709 28.3058 148.915 29.87 146.433C29.9945 148.098 29.6755 149.755 29.1462 151.335C27.5819 156.245 26.1496 161.202 24.2269 165.988C23.83 167.101 23.036 168.004 22.2578 168.875C22.5536 163.825 24.5073 159.086 26.2666 154.409Z" fill="#1A1C1C"/>
<path d="M217.694 149.063C218.854 148.16 220.045 150.199 218.948 150.962C217.788 151.856 216.597 149.825 217.694 149.063Z" fill="#1A1C1C"/>
<path d="M205.988 150.471C207.21 149.436 208.331 151.677 207.171 152.409C206.027 153.249 205.015 151.218 205.988 150.471Z" fill="#1A1C1C"/>
<path d="M212.2 154.401C213.92 153.094 215.399 156.51 213.383 156.821C211.896 157.265 210.978 155.304 212.2 154.401Z" fill="#1A1C1C"/>
<path d="M216.364 157.078C218.403 155.903 218.878 160.144 216.799 159.77C215.383 159.981 214.815 157.366 216.364 157.078Z" fill="#1A1C1C"/>
<path d="M221.634 158.424C223.681 157.008 225.284 160.603 223.042 161.335C221.229 162.183 220.155 159.389 221.634 158.424Z" fill="#1A1C1C"/>
<path d="M224.35 159.996C225.315 159.459 226.319 158.261 227.416 159.296C227.806 160.229 227.666 161.117 226.988 161.957C225.541 162.58 224.941 160.907 224.35 159.996Z" fill="#1A1C1C"/>
<path d="M82.7354 19.5345C83.5139 17.6281 84.6037 15.6204 86.7831 15.107C88.8377 14.0797 90.6359 15.7917 91.9201 17.1847C92.9165 15.8306 94.146 14.0096 96.1309 14.6479C98.2324 14.8735 98.6604 17.1847 99.0188 18.8656C100.988 17.667 102.973 15.5271 105.502 16.3441C107.962 16.8579 108.273 20.7173 106.249 22.0017C103.556 23.7991 100.404 24.5617 97.4152 25.6902C96.4656 24.9897 95.5784 24.2192 94.7923 23.34C94.543 23.3168 94.0373 23.2778 93.7802 23.2545C93.4533 23.2388 92.7842 23.1998 92.4494 23.1766C91.383 23.8924 90.1456 24.1105 88.8924 24.0558C88.8924 24.4838 88.8999 25.3476 88.8999 25.7835C88.5888 25.6201 87.974 25.2933 87.6704 25.1299C87.3978 25.9079 87.1174 26.686 86.8374 27.4565C86.4637 26.795 86.0978 26.1257 85.7477 25.4567C85.3819 25.5032 84.6348 25.5969 84.2689 25.6355C84.0586 25.4256 83.6384 24.9897 83.4281 24.772C83.078 24.7641 82.3931 24.7562 82.0505 24.7484C81.9729 24.3436 81.8091 23.5266 81.7315 23.1222C81.4511 23.4179 80.8753 24.0093 80.5949 24.305C80.2058 24.0093 79.4351 23.4022 79.0539 23.0986C80.7119 25.2386 82.1749 27.5108 83.5994 29.8067C81.023 27.7601 78.8672 25.161 77.3104 22.2663C76.5318 20.8965 76.2597 18.4065 78.2521 17.9785C79.9802 17.3324 81.4436 18.5852 82.7354 19.5345Z" fill="#F0C05E"/>
<path d="M128.605 18.1883C129.298 14.2041 135.812 13.434 137.766 16.5622C137.711 17.1067 137.595 18.212 137.54 18.7565C136.801 18.3364 136.069 17.9084 135.345 17.4804C136.155 18.2816 136.949 19.1455 136.941 20.3673C137.423 19.1766 138.101 18.0797 139.074 17.2237C141.377 21.7524 138.49 27.1376 134.193 29.2153C135.042 27.2541 135.61 25.1842 136.007 23.0833C134.17 25.1378 133.158 27.7132 131.983 30.1567C129.29 26.8572 127.826 22.4218 128.605 18.1883Z" fill="#729898"/>
<path d="M97.4158 25.6902C100.405 24.5617 103.557 23.7991 106.25 22.0016C102.545 27.1686 97.5249 31.2541 92.2166 34.678C92.0606 34.328 91.7337 33.6354 91.5703 33.2849C93.8746 32.5227 95.789 31.0127 97.5639 29.4098C96.77 28.507 95.9681 27.6124 95.2364 26.6552C94.7071 25.5421 94.2401 24.3983 93.7809 23.2545C94.038 23.2777 94.5437 23.3167 94.793 23.34C95.5791 24.2192 96.4663 24.9897 97.4158 25.6902Z" fill="#797F68"/>
<path d="M83.6002 29.8067C82.1757 27.5112 80.7127 25.239 79.0547 23.0986C79.4359 23.4022 80.2066 24.0093 80.5957 24.305C80.8761 24.0093 81.4519 23.418 81.7323 23.1223C81.8099 23.5266 81.9733 24.344 82.0513 24.7484C82.3939 24.7563 83.0788 24.7641 83.4289 24.772C83.6392 24.9897 84.0594 25.4256 84.2697 25.6355C84.6356 25.5969 85.3827 25.5036 85.7485 25.4567C86.0986 26.1261 86.4645 26.795 86.8382 27.4565C87.1182 26.6864 87.3986 25.9079 87.6712 25.1299C87.9748 25.2933 88.5896 25.6201 88.9007 25.7835C88.9397 26.1804 89.0177 26.9742 89.0641 27.3711C89.7104 27.262 90.3641 27.1608 91.0179 27.0596C91.6953 28.227 92.3801 29.3866 93.0882 30.5383C93.8668 29.2775 94.5749 27.9778 95.2365 26.6552C95.9683 27.6124 96.7701 28.507 97.564 29.4098C95.7895 31.0127 93.8747 32.5227 91.5704 33.285C91.7343 33.6354 92.0611 34.328 92.2167 34.678C91.7965 34.8103 90.9478 35.0828 90.5197 35.2151C90.3488 35.2694 89.9983 35.3706 89.827 35.4253L88.7298 35.534C87.0407 33.6043 85.118 31.8845 83.6002 29.8067Z" fill="#485F5C"/>
<path d="M88.8926 24.0558C90.1457 24.1105 91.3831 23.8924 92.4496 23.1766C92.7844 23.1998 93.4535 23.2388 93.7803 23.2545C94.2395 24.3983 94.7066 25.5421 95.2359 26.6552C94.5743 27.9778 93.8662 29.2775 93.0876 30.5383C92.3795 29.3866 91.6946 28.227 91.0173 27.0596C90.3635 27.1608 89.7098 27.262 89.0635 27.371C89.017 26.9742 88.9391 26.1804 88.9001 25.7835C88.9001 25.3476 88.8926 24.4838 88.8926 24.0558Z" fill="#978961"/>
<path d="M149.145 48.195C150.764 45.1837 151.971 41.9775 153.675 39.0205C153.652 42.1176 152.461 45.0203 151.161 47.7827C149.223 51.1366 147.596 54.7239 145.028 57.6734C141.533 62.3891 137.026 66.2568 132.551 70.0229C131.624 70.6844 130.636 71.2604 129.601 71.7274L128.542 72.0384C128.955 71.2368 129.406 70.4666 129.904 69.7197C130.644 69.2138 131.399 68.7311 132.162 68.2566C132.559 67.9763 132.956 67.6963 133.353 67.4085C136.699 64.4047 140.155 61.471 143.058 58.0155C145.448 54.9806 147.347 51.5957 149.145 48.195Z" fill="#2C3F3E"/>
<path d="M131.982 30.1567C133.158 27.7132 134.17 25.1374 136.006 23.0833C135.61 25.1842 135.041 27.2541 134.193 29.2153C131.181 35.3706 131.92 42.4366 131.749 49.0742C131.227 54.2105 131.562 59.3617 132.068 64.4901C131.313 63.8676 130.566 63.2684 129.865 62.6069C127.515 57.9069 124.565 53.549 121.771 49.121L122.611 48.9423L123.171 48.9734C125.538 52.1091 127.336 55.6346 129.562 58.8794C129.694 49.2923 128.643 39.3548 131.982 30.1567Z" fill="#3A5556"/>
<path d="M191.791 28.2581C192.172 26.017 194.43 24.6007 196.585 24.5228C200.649 25.3244 201.528 30.3048 202.049 33.7598C202.727 37.4873 200.018 40.4053 199.302 43.8296C199.006 42.2885 198.734 40.7478 198.453 39.215C198.384 40.6002 198.321 41.9928 198.314 43.3859C195.628 42.0629 194.429 39.1213 193.682 36.4057C192.989 33.713 191.254 31.1375 191.791 28.2581ZM193.519 31.5809C192.484 34.0244 196.056 31.5577 193.519 31.5809V31.5809ZM198.29 34.717C197.714 35.6041 197.535 37.7673 198.648 38.1488C199.084 37.2306 199.419 35.0981 198.29 34.717Z" fill="#678D91"/>
<path d="M174.986 26.9273C176.691 27.184 179.174 26.3359 180.108 28.2814C181.704 31.5966 180.816 35.4875 179.781 38.8414C179.119 40.5844 178.31 43.1524 175.967 42.95L175.788 42.9658C173.671 42.0007 171.88 40.0553 172.184 37.5727C172.55 33.9622 171.328 29.1685 174.986 26.9273ZM175.5 35.2615C175.298 36.8491 174.994 38.4835 175.515 40.0553C174.325 40.5144 174.332 40.9345 175.523 41.316L176.372 41.5416C176.372 39.4717 176.348 37.394 176.302 35.3241L175.5 35.2615Z" fill="#466E76"/>
<path d="M193.519 31.5809C192.484 34.0244 196.056 31.5576 193.519 31.5809V31.5809Z" fill="#A7BFC3"/>
<path d="M24.0014 34.8725C26.1186 34.678 27.1229 36.8648 28.2902 38.2189C28.695 37.355 29.1074 36.4911 29.5201 35.6273L29.9635 35.5887C30.3684 35.5497 31.1781 35.4796 31.5825 35.4407C30.5239 37.9385 29.9482 40.5923 29.2633 43.2067C29.1621 43.6115 28.9518 44.4131 28.8506 44.8179C28.5706 44.6545 28.0102 44.3352 27.7298 44.1718C27.5663 42.9968 27.4186 41.8294 27.2552 40.6545C27.154 42.67 27.1382 44.6931 27.0449 46.7165C26.173 47.3311 25.3093 47.9461 24.4453 48.5607C25.574 46.0239 26.7259 43.3236 25.5503 40.5687L25.535 40.4364C24.0093 40.3978 22.4915 40.3356 20.9658 40.3509C20.748 38.2189 21.6586 35.3627 24.0014 34.8725Z" fill="#D6AA40"/>
<path d="M29.9629 35.5887C30.7726 33.7909 33.3722 34.437 34.6876 35.254C37.0694 37.8452 35.5595 41.4172 34.1504 44.0705C34.104 43.3315 34.0106 41.8452 33.9638 41.1057C33.3411 41.6896 32.7264 42.2885 32.127 42.8956C32.2124 42.242 32.3758 40.9502 32.4617 40.3045C31.8623 40.9892 31.2629 41.666 30.6714 42.3511C31.1849 40.0088 31.7453 37.6818 32.3136 35.3473L31.5819 35.4406C31.1774 35.4796 30.3677 35.5497 29.9629 35.5887Z" fill="#F1D88D"/>
<path d="M198.29 34.717C199.419 35.0981 199.084 37.2306 198.648 38.1488C197.535 37.7673 197.714 35.6041 198.29 34.717Z" fill="#3A4F54"/>
<path d="M240.43 37.0361C240.695 35.7363 241.979 34.0322 243.435 34.9815C247.988 37.0361 249.529 42.3432 250.206 46.8877C251.031 52.9576 251.327 60.2645 246.276 64.6925C244.073 60.9807 243.544 56.576 242.259 52.5138C241.045 47.487 239.138 42.2342 240.43 37.0361Z" fill="#1B434C"/>
<path d="M216.612 118.504C217.15 116.496 219.663 116.153 221.096 117.445C228.124 122.955 231.619 131.841 232.133 140.58C231.705 142.72 231.214 144.853 230.833 147.001C228.895 146.892 227.019 146.152 225.742 144.666C222.17 140.799 220.388 135.709 218.387 130.939C216.947 127.024 215.087 122.659 216.612 118.504Z" fill="#1B434C"/>
<path d="M93.2513 108.426C93.4538 109.422 93.7105 110.41 93.9598 111.407C95.6411 111.095 97.3302 110.831 99.0425 110.722C99.3072 110.994 99.8365 111.539 100.101 111.811C99.7975 111.874 99.1902 112.014 98.8866 112.084C92.839 110.924 88.846 117.531 82.915 117.15C81.2259 117.126 79.5837 116.69 77.9414 116.372L79.2489 116.114C79.5758 116.083 80.2295 116.037 80.5485 116.013C82.5956 115.811 84.814 116.262 86.7288 115.352C86.8922 115.188 87.2191 114.862 87.3826 114.698L87.904 114.138C87.8886 113.64 87.8575 112.644 87.8417 112.138C87.9898 112.613 88.301 113.562 88.4569 114.029C89.9511 113.36 91.4066 112.574 92.6287 111.461C93.1036 110.504 93.3136 109.492 93.2513 108.426Z" fill="#CB3730"/>
<path d="M190.405 141.242C191.978 140.308 194.064 142.752 192.468 143.997C190.997 144.502 189.074 142.526 190.405 141.242Z" fill="#CB3730"/>
<path d="M31.5819 35.4407L32.3137 35.3474C31.7454 37.6818 31.185 40.0084 30.6714 42.3507C31.2629 41.666 31.8623 40.9892 32.4617 40.3041C32.3759 40.9502 32.2124 42.2421 32.127 42.8957C31.6599 43.6662 31.2086 44.4521 30.7726 45.238C30.43 44.4364 29.9318 43.7595 29.2627 43.2067C29.9476 40.5923 30.5233 37.9385 31.5819 35.4407Z" fill="#977E47"/>
<path d="M89.8268 35.4253C89.9981 35.3706 90.3482 35.2694 90.5196 35.215C87.3595 43.7985 84.0128 52.4126 79.0857 60.1712C75.5129 66.0076 70.874 71.0734 66.9279 76.653C71.6759 75.6104 76.4159 74.4587 81.0394 72.9802C82.2457 71.5329 82.6895 69.5484 83.9348 68.0932C84.0593 67.5719 84.1837 67.0502 84.3086 66.5367C85.1179 67.0502 85.935 67.564 86.7522 68.07C86.1843 68.848 85.6161 69.6185 85.0556 70.3965C85.6393 70.4198 86.8149 70.4587 87.4064 70.482C86.4179 71.1281 85.4369 71.7659 84.4409 72.3888C86.0363 72.1085 87.6864 71.9219 89.2274 72.5755C87.8498 73.1279 86.4955 73.7271 85.1722 74.3965C88.7529 74.1941 92.061 75.5793 95.5243 76.1549C93.3839 76.225 91.3056 76.731 89.2042 77.0656C86.8692 76.9644 84.5732 76.4353 82.2847 75.9683C81.5297 75.5635 80.7901 75.1513 80.043 74.7387C75.2329 76.5054 70.2278 77.6724 65.3089 79.1276C60.8878 86.0613 57.1437 93.3919 53.3764 100.676C52.8786 100.746 51.8901 100.885 51.3994 100.963C54.9332 92.9871 59.1054 85.2754 63.9309 78.0071C61.3935 72.0616 59.0585 65.9532 58.2256 59.5019C57.9609 58.4281 58.1011 57.1595 57.5017 56.2102C56.9803 55.611 56.4431 55.0432 55.9296 54.4518C56.2411 54.0781 56.8637 53.3387 57.1748 52.9654L57.1595 52.5686C57.0661 51.6189 56.9492 50.6774 56.8247 49.736C57.4474 49.3624 58.07 48.9966 58.6926 48.6308C58.6694 48.9887 58.6225 49.7124 58.5993 50.0703C58.5603 50.5684 58.4827 51.5645 58.4516 52.0626L59.5023 51.6267C59.2219 51.837 58.6537 52.2571 58.3736 52.4674C58.7005 53.1599 59.0431 53.8525 59.4011 54.5294C59.2688 61.9222 61.8141 69.2449 65.2931 75.6884C69.9635 69.1204 75.5909 63.253 79.6929 56.2882C83.569 49.5958 87.1027 42.6622 89.8268 35.4253Z" fill="#0F0D0A"/>
<path d="M113.154 35.1371C116.633 35.0127 118.922 38.0086 120.361 40.7947C121.755 43.3237 121.194 46.483 122.907 48.8801L122.611 48.9423L121.77 49.121C121.529 48.8021 121.039 48.1717 120.797 47.8607C117.264 47.6894 113.169 46.9189 111.223 43.5883C110.173 41.1995 109.636 37.861 111.885 35.9466C112.703 37.6818 113.403 39.4717 114.368 41.1369L114.072 39.1761L115.925 39.5808C115.1 39.1217 114.391 37.7909 113.278 38.6701C113.668 37.472 113.629 36.2888 113.154 35.1371Z" fill="#385B64"/>
<path d="M147.284 39.2615C147.526 37.4405 148.498 35.106 150.631 34.9816C152.32 34.6079 153.908 35.3552 155.395 36.0553C155.153 36.7636 154.92 37.4716 154.679 38.1799C155.013 37.8763 155.69 37.2538 156.033 36.9503C158.889 40.9581 154.702 45.7904 151.161 47.7827C152.46 45.0203 153.651 42.1177 153.674 39.0205C151.97 41.9775 150.764 45.1837 149.145 48.195C147.237 45.6739 146.973 42.3043 147.284 39.2615Z" fill="#749898"/>
<path d="M175.5 35.2619L176.302 35.3241C176.349 37.394 176.372 39.4717 176.372 41.5416L175.524 41.316C175.524 41.0045 175.516 40.3667 175.516 40.0552C174.994 38.4834 175.298 36.8491 175.5 35.2619Z" fill="#2E484E"/>
<path d="M13.6804 44.5997C12.9254 42.0318 14.778 38.8492 17.4946 38.5224C19.09 38.2964 19.5882 40.0552 20.39 41.0281C20.5377 40.8569 20.826 40.5222 20.9658 40.3509C22.4914 40.3356 24.0092 40.3978 25.5349 40.4368L25.5503 40.569C25.4569 42.1408 26.243 44.304 24.5228 45.3002C24.3672 44.0241 24.2349 42.7555 24.1026 41.4872C23.7292 43.8839 23.5422 46.3117 23.9238 48.7241C23.4799 48.693 22.5769 48.6465 22.1334 48.6229L22.2035 49.4714C22.6627 49.4714 23.5733 49.4868 24.0325 49.4947C22.7718 50.4672 21.6896 51.6425 20.9193 53.0351C18.1873 50.5995 14.2018 48.5765 13.6804 44.5997Z" fill="#B89440"/>
<path d="M53.805 40.1564C55.6571 37.9153 59.1988 38.3043 60.3819 40.9892C61.8764 38.7401 65.348 37.8531 67.3092 40.0241C68.7337 41.4172 67.2001 43.2847 66.8189 44.81C66.1884 44.9033 64.9199 45.0899 64.2894 45.1758C63.8223 44.2808 63.3552 43.378 62.896 42.4755C62.6625 42.7476 62.1954 43.2768 61.9619 43.5492C58.5683 44.3899 55.0967 45.4715 51.5633 44.8411C51.4854 44.6545 51.3373 44.2729 51.2676 44.0784C51.3373 43.2071 51.4464 42.3354 51.5633 41.4715C52.3183 41.0435 53.0733 40.6234 53.805 40.1564Z" fill="#EFC362"/>
<path d="M44.9935 42.2885C44.6666 40.5844 46.6747 39.923 47.9353 39.5651C49.9123 39.5261 51.8507 39.9773 53.8041 40.1564C53.0728 40.6234 52.3178 41.0435 51.5625 41.4715C51.4459 42.3354 51.3368 43.2071 51.2667 44.0785C50.6988 43.5103 50.1305 42.9579 49.5469 42.4133C50.1459 44.1096 50.8 45.7983 51.5471 47.448C51.1033 47.4091 50.216 47.3311 49.7725 47.3C48.7061 45.8373 47.6943 44.3277 46.6278 42.8567C47.1804 44.2576 47.7333 45.6502 48.239 47.0665C46.5967 46.0239 45.227 44.2497 44.9935 42.2885Z" fill="#F2CA74"/>
<path d="M175.523 41.316C174.332 40.9344 174.324 40.5143 175.515 40.0552C175.515 40.3667 175.523 41.0045 175.523 41.316Z" fill="#77949F"/>
<path d="M25.5499 40.5691C26.7255 43.3237 25.5736 46.0239 24.4449 48.5608C25.3089 47.9461 26.1726 47.3315 27.0445 46.7165C26.8889 48.9655 26.5384 51.1988 26.3285 53.4478C25.3164 52.6462 24.2968 53.0667 23.3863 53.7356L22.6313 54.1561C22.6392 53.8368 22.6703 53.2065 22.6856 52.8875C22.2422 52.9265 21.3624 52.9966 20.9189 53.0356C21.6893 51.6425 22.7711 50.4672 24.0321 49.4947C23.5729 49.4868 22.6624 49.4715 22.2032 49.4715L22.1331 48.623C22.5766 48.6466 23.4796 48.6931 23.9234 48.7242C23.5418 46.3117 23.7285 43.884 24.1022 41.4873C24.2346 42.7555 24.3669 44.0241 24.5224 45.3002C26.2427 44.3041 25.4566 42.1409 25.5499 40.5691Z" fill="#735D35"/>
<path d="M27.045 46.7165C27.1383 44.6931 27.154 42.67 27.2553 40.6545C27.4187 41.8294 27.5664 42.9968 27.7298 44.1718C27.8468 45.9073 28.1658 47.6193 28.6951 49.2765C28.6793 49.7746 28.6561 50.7786 28.6407 51.2767C28.5005 52.5138 28.3836 53.7514 28.2823 54.9964C28.2591 55.4787 28.2048 56.4516 28.1815 56.9339C29.4422 63.8908 32.2753 70.4119 34.2212 77.1743C33.3418 77.9606 32.7735 77.7736 32.5246 76.614C29.9793 69.8441 28.0567 62.8325 26.5235 55.7669C25.5272 55.0121 24.4374 54.4128 23.3867 53.7356C24.2972 53.0666 25.3169 52.6461 26.329 53.4478C26.5389 51.1988 26.8894 48.9655 27.045 46.7165Z" fill="#151110"/>
<path d="M32.1273 42.8957C32.7267 42.2885 33.3415 41.6893 33.9641 41.1057C34.011 41.8452 34.1043 43.3315 34.1508 44.0706C33.6995 45.5802 33.2013 47.2067 31.9249 48.2418C31.9639 47.487 32.0494 45.9849 32.0883 45.2301C31.8394 42.7012 34.6336 45.1758 32.0883 45.2301C31.1542 47.3622 29.8621 49.3077 28.6404 51.2767C28.6558 50.7787 28.679 49.7746 28.6948 49.2766C28.1655 47.6193 27.8465 45.9074 27.7295 44.1718C28.0099 44.3352 28.5703 44.6545 28.8503 44.8179C29.3016 45.3545 29.8156 45.8215 30.3992 46.2184C30.4926 45.977 30.6796 45.4868 30.773 45.238C31.2089 44.4521 31.6603 43.6662 32.1273 42.8957ZM28.6636 46.5373L28.4144 47.1523C28.8661 49.3077 30.5162 46.2105 28.6636 46.5373Z" fill="#EAC576"/>
<path d="M49.5469 42.4129C50.1305 42.9579 50.6988 43.5103 51.2667 44.0784C51.3368 44.2729 51.4849 44.6545 51.5625 44.8411C51.6948 45.16 51.9594 45.7983 52.0918 46.1172C53.773 46.4361 55.4779 46.6385 57.1745 46.8641C56.7385 47.4945 56.3104 48.1327 55.906 48.7863C55.5633 48.5218 54.8863 47.9851 54.5437 47.7205C54.0766 48.4674 53.6096 49.2143 53.1429 49.9616C53.3918 50.3971 53.8821 51.261 54.1235 51.6968C54.676 52.6461 55.2597 53.5722 55.9292 54.4514C56.4427 55.0428 56.9799 55.611 57.5013 56.2102C55.0651 55.8134 53.135 53.7045 51.8507 51.7358C51.8819 50.3739 52.0063 49.0198 52.1697 47.6658C52.1619 47.6268 52.1308 47.5492 52.1229 47.5102L52.193 47.5181L51.5471 47.448C50.8 45.7983 50.1459 44.1095 49.5469 42.4129Z" fill="#8F7F57"/>
<path d="M46.6279 42.8567C47.6944 44.3273 48.7061 45.8373 49.7726 47.3C50.2161 47.3311 51.1033 47.4091 51.5472 47.448L52.1931 47.5181L52.1698 47.6658C52.0064 49.0198 51.8819 50.3739 51.8508 51.7358C50.4417 50.5763 49.3989 49.0821 48.4261 47.5646L48.2391 47.0665C47.7334 45.6502 47.1805 44.2576 46.6279 42.8567Z" fill="#78603B"/>
<path d="M61.9613 43.5493C62.1949 43.2768 62.6619 42.7476 62.8955 42.4756C63.3547 43.378 63.8218 44.2808 64.2888 45.1758C64.9193 45.09 66.1879 44.9033 66.8184 44.81C66.6006 45.0978 66.1646 45.6739 65.9543 45.9617C65.6664 46.1408 65.0903 46.4988 64.8024 46.6775C64.2731 47.728 63.8218 48.8175 63.3626 49.8916C63.0668 49.8916 62.4674 49.8758 62.1638 49.8758C61.2765 50.4672 60.3971 51.0586 59.5019 51.6268L58.4512 52.0626C58.4823 51.5646 58.5599 50.5684 58.5989 50.0703C59.455 49.7514 60.3191 49.4478 61.1831 49.1521C60.7393 47.8839 60.2179 46.6464 59.5098 45.5026C60.1399 45.0825 60.7629 44.6545 61.3698 44.2107L61.9613 43.5493ZM61.2843 45.5491C60.0466 47.876 63.8371 45.7593 61.2843 45.5491V45.5491Z" fill="#756744"/>
<path d="M51.5625 44.8411C55.0963 45.4715 58.5678 44.3899 61.9614 43.5493L61.3699 44.2107C60.7626 44.6545 60.14 45.0825 59.5095 45.5026C58.7081 45.9227 57.9295 46.3739 57.1745 46.8645C55.4779 46.6385 53.773 46.4365 52.0918 46.1172C51.9595 45.7983 51.6948 45.16 51.5625 44.8411Z" fill="#C7A55C"/>
<path d="M61.2843 45.5494C60.0466 47.876 63.8371 45.7593 61.2843 45.5494V45.5494Z" fill="#403B2A"/>
<path d="M102.685 44.5686C109.737 50.0703 116.641 55.9614 122.323 62.9026C125.739 67.2447 128.121 72.3731 129.211 77.7815C129.888 80.6061 130.48 83.4544 130.667 86.3649C130.55 87.0106 130.324 88.3104 130.215 88.9561C129.631 88.3336 129.055 87.7111 128.487 87.0886C127.693 87.1587 126.907 87.2363 126.121 87.3142C127.538 85.2132 126.113 83.1044 124.922 81.3145C123.187 82.1315 121.98 83.6178 121.077 85.2676C118.524 81.9212 115.987 78.5674 113.535 75.1513C113.987 74.6453 114.446 74.1473 114.905 73.6492C114.321 73.6649 113.138 73.6803 112.546 73.6882C111.153 70.9958 109.495 68.42 108.46 65.5563C108.873 65.4784 109.713 65.3382 110.134 65.2606C109.667 65.2528 108.74 65.2217 108.281 65.2059C108.149 64.2799 107.853 63.4085 107.409 62.6069C105.938 56.5681 104.179 50.5995 102.685 44.5686Z" fill="#264950"/>
<path d="M28.6634 46.5373C30.5159 46.2105 28.8658 49.3077 28.4141 47.1524L28.6634 46.5373Z" fill="#14150F"/>
<path d="M57.175 46.8645C57.9299 46.3739 58.7085 45.9227 59.5103 45.5026C60.2184 46.6464 60.7399 47.8839 61.1837 49.1521C60.3197 49.4478 59.4556 49.7514 58.5994 50.0703C58.6227 49.7124 58.6695 48.9887 58.6928 48.6308C58.0701 48.9966 57.4475 49.3624 56.8249 49.7357C56.9493 50.6775 57.0663 51.6189 57.1596 52.5686H56.7626L56.7705 52.973L57.175 52.9651C56.8639 53.3387 56.2412 54.0782 55.9297 54.4514C55.2602 53.5722 54.6766 52.6462 54.124 51.6969C54.5052 51.7358 55.2602 51.8059 55.6418 51.8445C55.5095 51.4012 55.237 50.5219 55.1046 50.0782C55.2992 49.7593 55.704 49.1057 55.9065 48.7864C56.3113 48.1328 56.7394 47.4945 57.175 46.8645Z" fill="#5A513E"/>
<path d="M64.8022 46.6775C65.0901 46.4987 65.6663 46.1408 65.9542 45.9617C65.2772 48.7552 63.9303 51.3547 62.2416 53.6655C61.6501 54.6538 60.4044 54.5995 59.4005 54.5294C59.0426 53.8525 58.6999 53.16 58.373 52.4674C58.6534 52.2571 59.2213 51.837 59.5017 51.6267C60.3969 51.0586 61.2763 50.4672 62.1636 49.8758C62.4672 49.8758 63.0666 49.8916 63.3624 49.8916C63.8216 48.8174 64.2729 47.728 64.8022 46.6775Z" fill="#474038"/>
<path d="M52.1932 47.5181L52.123 47.5103C52.1309 47.5492 52.162 47.6272 52.1699 47.6658L52.1932 47.5181Z" fill="#434025"/>
<path d="M230.273 55.9303C229.105 52.9344 229.276 47.6583 233.168 46.9579C237.231 48.4206 239.963 52.3272 242.236 55.8291C243.38 58.6384 245.178 61.6107 244.968 64.6535C245.217 64.7315 245.723 64.9028 245.972 64.9882C246.011 66.4978 246.05 68.0153 246.112 69.5327C250.168 63.3231 250.121 54.7007 256.27 49.8837C258.006 48.7864 261.002 47.1913 262.598 49.2144C263.555 51.7512 262.574 54.5215 261.695 56.9418C259.29 62.7939 255.421 68.0542 250.642 72.194C248.603 73.8051 246.338 75.4781 243.645 75.5793C243.808 75.0423 244.135 73.9686 244.299 73.4315C238.414 68.7858 233.145 62.9183 230.273 55.9303Z" fill="#1B444C"/>
<path d="M53.1426 49.9617C53.6093 49.2144 54.0763 48.4674 54.5434 47.7205C54.886 47.9851 55.563 48.5218 55.9057 48.7864C55.7032 49.1057 55.2984 49.7593 55.1038 50.0782C55.2362 50.5219 55.5087 51.4012 55.641 51.8449C55.2594 51.8059 54.5044 51.7358 54.1232 51.6969C53.8818 51.261 53.3915 50.3971 53.1426 49.9617Z" fill="#3B3931"/>
<path d="M132.068 64.4901C131.562 59.3617 131.227 54.2104 131.749 49.0742C132.628 54.5684 132.426 60.1866 132.535 65.7351C132.745 66.1552 133.15 66.9958 133.352 67.4081C132.955 67.6963 132.558 67.9762 132.161 68.2566C132.13 67.0037 132.122 65.743 132.068 64.4901Z" fill="#7D9D9C"/>
<path d="M159.358 58.0545C160.276 54.3116 163.28 51.5957 165.748 48.8021C164.129 60.926 160.494 73.0968 153.286 83.1355C148.912 89.4384 142.576 94.1231 135.82 97.625C135.283 97.6561 134.201 97.7262 133.664 97.7652C133.532 97.3525 133.275 96.5355 133.143 96.1233C133.976 90.8937 134.933 85.6487 136.637 80.6219C137.384 80.4195 138.132 80.225 138.887 80.0226C138.35 80.1159 137.276 80.2951 136.739 80.3884C139.657 73.7583 144.382 67.914 150.282 63.7121C150.726 63.7975 151.597 63.9688 152.033 64.0543C151.231 61.471 154.851 61.1363 156.151 59.5409C157.49 60.1169 158.595 60.2878 158.003 58.3659C158.346 58.288 159.023 58.1325 159.358 58.0545ZM159.435 61.1516C159.856 61.5796 159.856 61.5796 159.435 61.1516V61.1516ZM156.4 68.9334C155.372 69.3071 155.154 71.6183 156.672 71.0269C158.096 70.8246 158.003 68.1011 156.4 68.9334ZM139.152 77.5169C139.587 77.9528 139.587 77.9528 139.152 77.5169V77.5169Z" fill="#2A4B52"/>
<path d="M56.7627 52.5686H57.1597L57.175 52.9655L56.7706 52.9729L56.7627 52.5686Z" fill="#A79D80"/>
<path d="M205.552 58.5136C207.163 58.8093 209.335 58.9495 209.989 60.7705C211.476 63.9298 212.308 67.6341 211.39 71.0813C210.845 72.8322 209.927 74.9489 207.818 75.1356C207.529 72.1629 206.93 69.2213 206.136 66.3423C206.712 70.0461 207.156 73.7815 206.798 77.5401C203.459 74.5599 202.921 69.8595 202.19 65.704C201.754 63.5172 202.081 60.9961 203.684 59.3464C204.548 58.5447 205.202 58.7392 205.638 59.9456C205.614 59.5877 205.576 58.8715 205.552 58.5136Z" fill="#648B8F"/>
<path d="M86.7598 62.6848C86.9933 59.7121 90.8229 59.1908 92.8231 60.8406C92.2394 62.2879 91.6168 63.7274 90.9473 65.1437C89.9588 65.9454 88.8691 66.599 87.7872 67.2604C87.8885 65.2607 88.8459 63.4239 89.4606 61.541C88.558 61.9222 87.6549 62.3033 86.7598 62.6848Z" fill="#F7D17C"/>
<path d="M92.8234 60.8406C94.1002 62.5604 93.7808 64.6535 92.5123 66.2879C93.7654 66.5446 95.0186 66.8092 96.2717 67.0738C96.7699 69.7819 94.1002 70.7934 92.3489 72.1396C92.1543 72.0463 91.7652 71.8597 91.5781 71.766C90.9787 71.0813 90.3719 70.4044 89.7725 69.7272C91.189 68.9334 92.5666 68.0853 93.9521 67.2451C92.6446 67.4782 91.3446 67.7353 90.0371 67.9377C90.3482 67.0116 90.6208 66.0698 90.9476 65.1437C91.6171 63.7275 92.2398 62.288 92.8234 60.8406Z" fill="#F0D895"/>
<path d="M159.435 61.1516C159.855 61.5796 159.855 61.5796 159.435 61.1516V61.1516Z" fill="#8AA4A8"/>
<path d="M86.7602 62.6848C87.6553 62.3033 88.5584 61.9222 89.461 61.5406C88.8462 63.4239 87.8888 65.2607 87.7876 67.2605C87.8109 67.7428 87.8424 68.7157 87.8577 69.198C87.7175 70.7234 88.9632 70.0229 89.7725 69.7272C90.3719 70.4044 90.9788 71.0813 91.5782 71.766C90.8 72.0463 90.0139 72.3188 89.2279 72.5755C87.6864 71.9219 86.0363 72.1085 84.4409 72.3885C85.4369 71.766 86.4179 71.1281 87.4064 70.482C86.8149 70.4588 85.6393 70.4198 85.0557 70.3966C85.6161 69.6181 86.1844 68.848 86.7527 68.0696C85.9351 67.564 85.1179 67.0502 84.3086 66.5368C84.9466 65.3071 85.6082 64.0854 86.2931 62.8794L86.7602 62.6848Z" fill="#A9865A"/>
<path d="M129.865 62.6069C130.565 63.2683 131.312 63.8676 132.067 64.4901C132.122 65.743 132.13 67.0037 132.161 68.2566C131.398 68.731 130.643 69.2138 129.904 69.7197C129.763 67.3459 129.763 64.9724 129.865 62.6069Z" fill="#4E7A7C"/>
<path d="M167.592 64.6224C168.246 63.3928 169.795 63.4239 170.923 62.9337C170.036 65.3229 169.079 67.7117 167.732 69.8831L167.483 70.3111C167.32 68.459 166.308 66.2643 167.592 64.6224Z" fill="#709394"/>
<path d="M170.924 62.9337C173.905 62.7238 175.851 65.5406 176.901 67.9452C177.586 72.4042 177.158 78.404 172.846 80.9487C172.699 78.6296 172.644 76.3105 172.511 73.9918C171.967 76.1782 171.975 78.443 172.044 80.6762C168.441 78.4272 168.192 73.6803 167.732 69.8827C169.079 67.7117 170.036 65.3229 170.924 62.9337ZM171.881 65.0894C172.317 65.4784 172.317 65.4784 171.881 65.0894V65.0894Z" fill="#50797E"/>
<path d="M225.836 65.9918C226.186 64.5291 227.51 62.9415 229.191 63.494C230.958 64.07 232.327 65.4162 233.651 66.6691C236.25 69.3535 238.78 72.2329 240.228 75.7191C242.275 80.536 243.1 85.781 243.31 90.9795C242.781 91.8508 242.088 92.6056 241.442 93.3915L240.555 93.6797C235.457 87.991 230.568 81.9602 227.307 74.9954C226.038 72.2176 225.003 69.0504 225.836 65.9918Z" fill="#1C444D"/>
<path d="M221.975 92.5824C222.956 90.8783 225.299 91.1429 226.63 92.2788C230.56 95.3996 233.627 99.6949 235.083 104.52C236.18 108.115 236.717 111.835 237.48 115.5C237.83 114.169 238.134 112.823 238.515 111.5C238.593 111.936 238.749 112.807 238.827 113.235C238.788 115.01 238.204 116.722 237.971 118.473C240.905 113.609 244.516 109.119 248.665 105.236C252.253 102.045 256.853 98.9869 261.889 99.7807C263.384 99.9831 264.022 101.734 263.5 103.033C262.442 106.893 259.546 109.897 256.721 112.589C252.409 116.457 247.676 120.107 242.127 121.99C240.539 122.566 238.827 122.465 237.208 122.114C237.114 121.546 237.021 120.986 236.919 120.426C236.39 120.387 235.332 120.309 234.81 120.27C232.187 120.044 230.21 117.967 228.669 116.021C225.836 112.091 224.03 107.539 222.287 103.049C221.119 99.7571 219.967 95.7807 221.975 92.5824Z" fill="#1C444D"/>
<path d="M87.7871 67.2605C88.8689 66.599 89.9587 65.9454 90.9472 65.1437C90.6203 66.0698 90.3478 67.0116 90.0366 67.9373C89.336 68.3968 88.5811 68.7622 87.8572 69.198C87.8415 68.7157 87.8103 67.7428 87.7871 67.2605Z" fill="#1A232B"/>
<path d="M171.881 65.0894C172.317 65.4784 172.317 65.4784 171.881 65.0894V65.0894Z" fill="#98BBBC"/>
<path d="M90.037 67.9377C91.3445 67.7353 92.6445 67.4786 93.952 67.2451C92.5665 68.0853 91.1889 68.9334 89.7723 69.7272C88.9626 70.0229 87.7174 70.7233 87.8576 69.198C88.5814 68.7625 89.3364 68.3968 90.037 67.9377Z" fill="#927C4A"/>
<path d="M156.4 68.9334C158.003 68.1011 158.096 70.8245 156.672 71.0269C155.154 71.6183 155.372 69.3071 156.4 68.9334Z" fill="#446267"/>
<path d="M129.6 71.727C130.635 71.2604 131.624 70.6844 132.55 70.0229C133.15 77.159 133.072 84.3183 132.939 91.4697C132.612 91.1815 131.974 90.6137 131.655 90.3255C131.624 88.9403 131.336 87.5788 130.667 86.3649C130.479 83.4544 129.888 80.6061 129.211 77.7815C129.546 75.7817 129.686 73.7583 129.6 71.727Z" fill="#527A82"/>
<path d="M91.5776 71.766C91.7647 71.8593 92.1538 72.0463 92.3484 72.1396C94.5199 73.548 97.3763 72.6688 99.5558 74.0229C100.319 75.2289 98.9099 76.2171 98.4586 77.2444C98.8709 78.1626 99.6727 79.0887 99.0654 80.1159C97.7579 80.2951 96.4426 80.3262 95.1347 80.4116C95.5395 81.4779 95.9365 82.5437 96.3256 83.6178C94.3254 83.3922 92.0758 83.0965 90.7447 81.392C88.7988 79.3533 86.5887 77.1279 83.6307 76.8164C83.1092 76.6762 82.728 76.2561 82.2842 75.9683C84.5727 76.4353 86.8687 76.9645 89.2037 77.0656C91.3051 76.731 93.3833 76.225 95.5242 76.1549C92.0605 75.5793 88.7524 74.1941 85.1717 74.3965C86.495 73.7272 87.8493 73.1279 89.2273 72.5755C90.0134 72.3188 90.7994 72.0463 91.5776 71.766Z" fill="#EED691"/>
<path d="M246.728 84.7616C249.358 79.3458 253.406 73.7039 259.5 72.0463C261.991 71.4549 267.019 72.1164 266.046 75.7427C260.979 75.7116 255.632 76.8865 251.833 80.4352C250.051 81.7814 248.985 84.1238 246.728 84.7616Z" fill="#19424C"/>
<path d="M251.833 80.4353C255.632 76.8865 260.979 75.7116 266.046 75.7427C266.669 79.2056 264.007 81.9059 261.819 84.1939C255.951 89.9054 248.977 94.4889 241.434 97.6719C241.504 100.567 240.726 103.368 240.329 106.208L239.932 106.901C239.831 109.049 239.457 111.181 238.827 113.235C238.749 112.807 238.593 111.936 238.516 111.5C239.037 106.854 240.617 102.411 241.193 97.7731C240.687 97.9128 239.675 98.1853 239.169 98.3176C240.111 96.7611 240.827 95.096 241.442 93.392C242.088 92.6057 242.781 91.8509 243.31 90.9795C244.486 88.9719 245.458 86.8551 246.571 84.8164L246.727 84.7616C248.984 84.1238 250.051 81.7815 251.833 80.4353Z" fill="#0D353B"/>
<path d="M32.5246 76.614C32.7735 77.7736 33.3417 77.9606 34.2212 77.1743C35.568 77.5637 37.1945 77.3767 38.3232 78.2717C38.619 79.9758 37.5761 81.6413 36.2761 82.6606C35.8559 82.9563 35.0151 83.5477 34.587 83.8513C34.5248 83.2831 34.3925 82.1547 34.3303 81.5869C33.8943 81.6255 33.0149 81.6881 32.5789 81.7267C32.727 82.1472 33.007 82.9953 33.1551 83.4154L32.0807 83.2831C32.0031 81.7503 31.9484 80.2171 31.8086 78.6918C31.9874 78.1705 32.3454 77.1357 32.5246 76.614Z" fill="#F2D389"/>
<path d="M25.0674 79.33C27.1224 78.1784 30.158 75.4391 31.8081 78.6918C31.9479 80.2171 32.0026 81.7503 32.0802 83.2831C32.0881 83.6568 32.1113 84.4037 32.1192 84.7774C31.7222 85.0341 30.9283 85.5322 30.5313 85.781C29.8854 86.6527 29.2549 87.5241 28.6402 88.4116C28.7489 86.1547 28.7103 83.8745 28.0561 81.6956C28.0096 82.3027 27.9084 83.5088 27.8616 84.1159C27.3323 84.4506 26.2662 85.1195 25.729 85.4621C25.2619 84.069 25.1064 82.5827 26.3363 81.5479C25.9078 80.8164 25.4797 80.0769 25.0674 79.33Z" fill="#DEB251"/>
<path d="M139.151 77.5169C139.587 77.9528 139.587 77.9528 139.151 77.5169V77.5169Z" fill="#9DB2B1"/>
<path d="M22.3275 83.6099C21.7514 81.4468 22.1172 79.1044 24.5381 78.3961L25.0674 79.33C25.4797 80.077 25.9078 80.8164 26.3359 81.5479C25.1063 82.5827 25.2619 84.069 25.729 85.4621C24.7716 86.1314 23.8532 86.8551 22.9348 87.5709C22.5453 87.4229 21.7829 87.1429 21.3934 87.0028C21.1909 87.7186 20.9889 88.4348 20.7865 89.1506C19.5408 88.1466 18.0309 86.8083 18.218 85.0652C18.8016 83.2599 20.8952 83.7966 22.3275 83.6099Z" fill="#CDA349"/>
<path d="M32.5783 81.7267C33.0142 81.6877 33.8937 81.6255 34.3296 81.5865C32.8351 84.3258 31.4264 87.1118 29.8073 89.781L29.6671 91.174C32.4617 101.415 35.9254 111.484 39.2489 121.57C40.0661 120.044 40.86 118.519 41.654 116.986C41.8796 117.484 42.3235 118.496 42.5491 119.002C40.5875 123.165 38.377 127.212 36.5169 131.421C35.9018 132.705 35.326 134.122 34.1118 134.978C34.6411 131.032 36.4 127.375 38.1824 123.865C35.2015 116.27 33.1619 108.356 30.9829 100.512C30.2512 97.9675 29.8542 95.3059 28.6554 92.925C26.6162 90.2944 27.4724 87.104 27.8614 84.1159C27.9083 83.5088 28.0095 82.3027 28.056 81.6956C28.7097 83.8745 28.7487 86.1547 28.64 88.4112C29.2548 87.5241 29.8853 86.6527 30.5312 85.781C30.9282 85.5322 31.7221 85.0341 32.1191 84.7774C32.1112 84.4037 32.088 83.6568 32.0801 83.2832L33.1544 83.4154C33.0064 82.9953 32.7264 82.1468 32.5783 81.7267Z" fill="#090908"/>
<path d="M121.078 85.2676C121.981 83.6178 123.187 82.1315 124.923 81.3145C126.114 83.1044 127.538 85.2133 126.122 87.3142C126.908 87.2363 127.694 87.1587 128.488 87.0886C129.056 87.7111 129.632 88.3336 130.216 88.9561C130.325 88.3104 130.551 87.0107 130.667 86.3649C131.337 87.5788 131.625 88.9408 131.656 90.3255C131.975 90.6137 132.613 91.1819 132.94 91.4697C132.979 92.7848 133.104 94.1156 132.909 95.4228C132.621 95.8977 132.061 96.8545 131.772 97.3293C131.422 97.1817 130.706 96.8934 130.356 96.7458C127.406 92.8002 124.09 89.1585 121.078 85.2676Z" fill="#2F555D"/>
<path d="M34.3301 81.5865C34.3923 82.1547 34.5246 83.2832 34.5868 83.8513C35.0149 83.5477 35.8557 82.9564 36.2759 82.6607C36.3772 82.9406 36.5717 83.5009 36.6729 83.7812C36.3382 84.0848 35.6612 84.6837 35.3186 84.9872C33.544 87.143 32.0573 89.6018 29.668 91.174L29.8078 89.781C31.4268 87.1118 32.8355 84.3258 34.3301 81.5865Z" fill="#D0AD6A"/>
<path d="M25.7296 85.4621C26.2668 85.1195 27.3329 84.4506 27.8622 84.1159C27.4731 87.104 26.6169 90.2944 28.6561 92.925C25.4728 93.3293 23.2312 90.6913 20.7871 89.1506C20.9895 88.4348 21.1916 87.719 21.394 87.0028C21.7835 87.1429 22.5459 87.4229 22.9354 87.5709C23.8538 86.8551 24.7722 86.1314 25.7296 85.4621Z" fill="#91733F"/>
<path d="M29.668 91.174C32.0573 89.6018 33.544 87.1429 35.3186 84.9872C37.4125 91.8666 39.7865 98.6522 42.0904 105.469C40.9928 106.566 39.7085 107.648 39.2804 109.197C39.2804 111.967 40.6348 114.48 41.6544 116.986C40.8605 118.519 40.0665 120.044 39.2493 121.57C35.9258 111.484 32.4622 101.415 29.668 91.174Z" fill="#FEFFFF"/>
<path d="M65.7522 88.925C67.3169 89.0183 68.0408 90.4503 69.0371 91.4307C70.6561 92.0843 72.4772 90.4735 74.0497 91.5788C75.0146 92.7848 74.0029 94.0999 73.6449 95.3295C74.7346 95.8039 75.8243 96.2788 76.9219 96.7611C76.595 99.1035 74.1119 99.7886 72.5863 101.197L72.018 100.465C71.8782 100.271 71.5899 99.8819 71.4501 99.6874C70.7416 99.2358 70.0256 98.8003 69.3093 98.3723C69.1537 98.4731 68.8426 98.668 68.6866 98.7688C68.181 98.5743 67.1688 98.1774 66.6632 97.9829C66.8345 97.6718 67.1846 97.0568 67.3559 96.7458C66.5072 96.0922 65.6589 95.4382 64.8027 94.7924C65.0441 93.0647 65.3009 91.3453 65.6124 89.6408L65.7522 88.925Z" fill="#EBCC7C"/>
<path d="M62.6699 100.341C63.3705 96.73 63.5883 92.8159 65.6122 89.6408C65.3007 91.3453 65.0439 93.0647 64.8025 94.7924C65.6587 95.4382 66.507 96.0922 67.3556 96.7458C67.1843 97.0568 66.8342 97.6718 66.6629 97.9829C67.1686 98.1774 68.1807 98.5743 68.6864 98.7688C68.2039 99.0724 67.2544 99.6716 66.7716 99.9752C66.9587 100.333 67.332 101.049 67.5191 101.415C66.8496 101.991 66.1801 102.551 65.4952 103.111C65.2463 103.103 64.7403 103.088 64.4914 103.072C64.5847 102.714 64.7635 101.991 64.8568 101.633C64.1255 101.205 63.4016 100.769 62.6699 100.341Z" fill="#94803F"/>
<path d="M106.094 99.8819C106.32 97.7573 107.55 95.135 110.157 96.0221C110.149 97.5006 110.655 99.407 109.293 100.465C107.612 101.843 107.075 104.014 106.312 105.944C105.472 107.983 104.989 110.286 103.354 111.881C103.821 109.858 104.452 107.889 105.051 105.913C104.569 105.819 103.596 105.64 103.105 105.555C106.078 106.699 106.203 102.839 107.417 101.142C107.091 100.831 106.429 100.201 106.094 99.8819Z" fill="#0F1C21"/>
<path d="M131.772 97.3293C132.06 96.8544 132.621 95.8973 132.909 95.4228L133.142 96.1233C133.275 96.5355 133.531 97.3525 133.664 97.7652C134.201 97.7262 135.283 97.6561 135.82 97.625C134.995 97.8896 134.162 98.1384 133.329 98.3798C133.298 98.87 133.251 99.8583 133.228 100.348C132.193 100.294 131.165 100.263 130.138 100.255C130.192 99.0802 130.262 97.9128 130.355 96.7458C130.706 96.8934 131.422 97.1813 131.772 97.3293Z" fill="#517E84"/>
<path d="M89.6403 98.1384C90.3173 96.7221 92.8004 96.5745 93.1194 98.3408C94.3261 100.963 91.2515 103.127 92.3802 105.734C92.9174 105.695 93.976 105.632 94.5049 105.601C94.1469 105.741 93.4309 106.014 93.0808 106.146C93.1194 106.714 93.2131 107.858 93.2517 108.426C93.3143 109.492 93.104 110.504 92.6291 111.461C92.3491 109.959 92.0923 108.457 91.8741 106.955C91.7186 105.874 91.5862 104.792 91.4382 103.718C89.2666 102.808 88.4573 100.154 89.6403 98.1384Z" fill="#0D2128"/>
<path d="M111.652 100.676C111.053 98.8857 113.115 96.1697 115.038 97.4383C115.575 98.8389 115.38 100.598 114.158 101.586C112.586 102.886 112.181 104.893 111.668 106.761L113.038 106.333C110.897 108.379 109.815 111.235 107.877 113.453C108.71 111.056 109.823 108.784 110.78 106.434C111.38 104.574 112.773 102.636 111.652 100.676Z" fill="#101E24"/>
<path d="M68.6863 98.7688C68.8422 98.6676 69.1533 98.4731 69.3089 98.3719C70.0253 98.7999 70.7412 99.2357 71.4493 99.6874C71.5895 99.8819 71.8774 100.271 72.0176 100.465L72.3292 101.259C73.8702 101.096 75.4112 100.917 76.9448 100.745C76.968 101.757 76.929 102.769 76.8278 103.788C76.4076 103.695 75.5672 103.524 75.1466 103.438C74.3605 103.251 73.5823 103.08 72.7962 102.909C72.7415 103.928 72.695 104.948 72.6639 105.975C71.1851 105.407 69.7059 104.854 68.2038 104.364C68.5228 104.123 69.1612 103.648 69.4802 103.407C68.1495 103.306 66.8262 103.197 65.4951 103.111C66.18 102.551 66.8495 101.991 67.519 101.415C67.3319 101.049 66.9586 100.333 66.7715 99.9752C67.2543 99.6716 68.2038 99.0723 68.6863 98.7688Z" fill="#CFB66A"/>
<path d="M101.774 99.2826C102.684 98.1152 104.14 99.446 103.813 100.582C103.969 102.52 102.342 103.773 101.393 105.236C100.661 107.352 100.202 109.57 100.101 111.811C99.8359 111.539 99.3066 110.994 99.042 110.722C99.4232 108.823 99.9604 106.963 100.42 105.088C100.077 103.072 99.6178 100.52 101.774 99.2826Z" fill="#062325"/>
<path d="M77.7539 104.956C76.7654 103.329 77.1159 99.4771 79.8167 100.131C82.1828 100.574 82.4632 103.5 81.5212 105.313C83.9263 108.123 86.1915 111.15 87.3821 114.698C87.2186 114.862 86.8918 115.188 86.7283 115.352C85.335 111.951 83.3115 108.862 81.0387 105.99C80.0502 105.36 78.8361 105.345 77.7539 104.956Z" fill="#091B2C"/>
<path d="M43.7557 104.271C46.1143 102.816 48.6592 101.508 51.399 100.963C51.8898 100.886 52.8782 100.746 53.376 100.676C56.5054 100.512 59.502 101.757 62.1481 103.306C62.5451 103.563 62.9345 103.827 63.3158 104.115C67.8613 108.092 71.683 112.784 75.5436 117.399C72.6171 121.321 73.5977 126.612 75.4349 130.776C77.4663 135.118 80.2372 139.188 83.8254 142.394C84.3314 142.876 84.8375 143.374 85.3353 143.88L86.2383 144.915C84.5728 144.83 82.9148 144.744 81.249 144.643C75.8162 141.351 71.9401 136.137 69.4571 130.371C68.3284 127.694 67.3867 124.931 65.9702 122.379C67.9625 127.717 69.7138 133.273 73.1543 137.896C75.0222 140.931 78.1822 142.736 80.7665 145.078C74.4929 144.635 70.2975 139.164 67.0441 134.363C63.0511 127.686 59.0971 120.83 53.5241 115.305C56.6609 119.469 60.0466 123.492 62.4206 128.169C65.8453 134.596 70.0718 141.195 76.8436 144.479C78.8439 145.553 81.1478 145.258 83.3039 145.063C83.3351 145.335 83.3894 145.872 83.413 146.137C84.4637 145.67 85.5298 145.195 86.7133 145.273C87.0866 145.717 87.8262 146.604 88.1921 147.047L87.9975 147.74C78.4859 150.689 68.4296 147.179 60.0076 142.705C59.6575 142.487 58.9648 142.067 58.6147 141.857C55.3688 139.756 52.4112 137.133 50.3251 133.85C50.1538 133.585 49.7958 133.04 49.6245 132.775C46.9004 128.379 44.5343 123.772 42.5494 119.002C42.3238 118.496 41.8799 117.484 41.6542 116.986C40.6346 114.48 39.2803 111.967 39.2803 109.197C39.7084 107.648 40.9926 106.566 42.0902 105.469C42.627 105.049 43.1874 104.652 43.7557 104.271ZM65.1837 121.103C65.6196 121.5 65.6196 121.5 65.1837 121.103V121.103ZM72.9129 131.165C72.6482 132.246 73.0531 132.705 74.127 132.542C74.3838 131.46 73.9794 131.001 72.9129 131.165ZM77.6376 138.339C77.3418 139.592 78.953 141.616 80.2916 141.117C80.4397 139.849 78.7663 138.511 77.6376 138.339Z" fill="#EE7B51"/>
<path d="M113.037 106.333C117.995 102.73 123.918 100.178 130.137 100.255C131.165 100.263 132.192 100.294 133.227 100.349C140.474 100.917 147.378 103.672 153.838 106.87C152.935 113.679 149.627 119.866 146.016 125.601C142.7 130.853 138.123 135.235 132.97 138.674C131.998 139.242 131.001 139.779 129.997 140.308C123.031 143.826 115.676 146.736 107.946 148.028C106.195 147.942 104.444 147.802 102.692 147.724C103.712 144.254 103.666 140.487 105.728 137.359C109.005 132.697 112.593 127.601 112.328 121.617C111.877 118.496 109.916 115.811 107.829 113.539L107.876 113.453C109.814 111.235 110.896 108.379 113.037 106.333Z" fill="#EF9153"/>
<path d="M72.7964 102.909C73.5825 103.08 74.3607 103.251 75.1467 103.438C75.9643 104.232 76.4546 105.306 76.5169 106.449C76.4546 110.06 78.8054 113.041 80.5488 116.013C80.2294 116.037 79.5757 116.083 79.2488 116.114C77.9023 113.936 76.9449 111.562 75.8084 109.282C74.7112 108.224 73.3568 107.383 72.6641 105.975C72.6952 104.948 72.7417 103.928 72.7964 102.909Z" fill="#0D1625"/>
<path d="M94.5041 105.601C96.3567 104.73 98.4428 104.667 100.42 105.088C99.9606 106.963 99.4234 108.823 99.0422 110.722C97.3298 110.831 95.6407 111.095 93.9595 111.407C93.7102 110.41 93.4534 109.422 93.251 108.426C93.2124 107.858 93.1187 106.714 93.0801 106.146C93.4302 106.014 94.1462 105.741 94.5041 105.601Z" fill="#DF6346"/>
<path d="M101.393 105.236C101.821 105.313 102.677 105.477 103.105 105.555C103.595 105.64 104.568 105.819 105.051 105.913C104.452 107.889 103.821 109.858 103.354 111.881C104.989 110.286 105.471 107.983 106.312 105.944C107.798 106.115 109.285 106.286 110.78 106.434C109.822 108.784 108.709 111.057 107.876 113.453L107.829 113.539C105.619 111.874 102.723 111.975 100.101 111.811C100.202 109.57 100.661 107.352 101.393 105.236Z" fill="#D85F47"/>
<path d="M165.42 105.975C166.424 105.874 167.428 105.773 168.432 105.648C172.184 108.317 172.947 113.43 172.659 117.718C172.464 120.255 171.709 123.484 168.939 124.348C168.79 120.854 168.3 117.391 168.082 113.904C168.082 117.313 168.51 120.722 168.331 124.145C165.701 123.966 164.914 120.994 164.432 118.885C163.941 115.912 162.509 113.095 162.556 110.045C162.774 108.27 164.128 107.049 165.42 105.975Z" fill="#6A8E91"/>
<path d="M200.105 108.784C201.396 106.909 203.895 106.948 205.919 107.111C207.289 107.555 207.825 109.049 208.16 110.317C207.397 110.543 206.65 110.769 205.895 111.002C208.394 110.629 207.756 113.422 208.176 115.002L207.055 115.088C207.872 118.745 207 122.62 204.595 125.515C204.113 124.838 203.638 124.161 203.163 123.484L202.657 123.733C202.385 123.865 201.84 124.138 201.568 124.278C201.311 125.204 201.069 126.145 200.852 127.087C198.89 124.986 199.334 121.92 199.777 119.344C198.914 115.928 197.909 111.912 200.105 108.784ZM203.763 108.457C203.724 111.01 206.191 107.36 203.763 108.457V108.457ZM201.21 110.955C199.988 113.298 203.77 111.103 201.21 110.955V110.955ZM204.518 111.033C203.825 112.014 203.981 112.605 204.969 112.815C205.654 111.827 205.506 111.235 204.518 111.033ZM202.291 118.752C202.354 119.936 205.132 120.636 205.716 119.484C205.249 118.231 203.265 118.006 202.291 118.752Z" fill="#769A9C"/>
<path d="M87.8415 112.138C87.4835 109.632 89.8032 107.811 91.8735 106.955C92.0917 108.457 92.3484 109.959 92.6284 111.461C91.4064 112.574 89.9508 113.36 88.4567 114.029C88.3011 113.562 87.9896 112.613 87.8415 112.138Z" fill="#E66548"/>
<path d="M203.762 108.457C203.723 111.01 206.19 107.36 203.762 108.457V108.457Z" fill="#C0D9DA"/>
<path d="M201.21 110.955C199.987 113.298 203.77 111.103 201.21 110.955V110.955Z" fill="#A3BBBE"/>
<path d="M204.517 111.033C205.506 111.235 205.653 111.827 204.968 112.815C203.98 112.605 203.824 112.014 204.517 111.033Z" fill="#A0BCB9"/>
<path d="M82.9149 117.15C88.8459 117.531 92.8389 110.924 98.8869 112.084C98.3418 113.064 97.8436 114.068 97.3301 115.072C96.6838 115.383 96.0379 115.694 95.3921 116.006C94.4658 118.971 91.5235 120.239 89.0172 121.609C87.9507 122.068 87.8495 123.321 87.4293 124.262C88.0598 124.356 88.6904 124.457 89.3283 124.558C90.0057 126.114 90.7217 127.663 91.4613 129.196C91.8894 129.072 92.7456 128.814 93.1736 128.682C93.1035 130.55 93.0803 132.417 92.9945 134.285C91.8114 133.6 90.971 132.527 90.2625 131.382C89.632 131.779 89.0015 132.169 88.3788 132.573C87.7172 132.488 87.0556 132.402 86.4018 132.324C86.0982 132.581 85.4834 133.095 85.1798 133.351C84.2224 133.157 83.2729 132.978 82.3155 132.791C82.004 134.659 81.763 136.542 81.6149 138.433C78.0579 133.6 74.5241 127.912 75.1235 121.655C75.1625 119.616 76.509 117.974 77.6841 116.434L77.9413 116.372C79.5836 116.69 81.2258 117.126 82.9149 117.15Z" fill="#E55F46"/>
<path d="M100.101 111.811C102.724 111.975 105.62 111.874 107.831 113.539C109.916 115.811 111.878 118.496 112.329 121.617C112.594 127.601 109.006 132.698 105.729 137.359C105.83 136.075 106.001 134.768 105.822 133.484C104.546 131.919 102.942 130.643 101.861 128.916C101.362 130.433 100.809 131.927 100.203 133.398C99.3854 131.857 98.6226 130.278 97.8751 128.706C97.2836 130.667 96.9023 132.69 96.6219 134.729C96.2096 134.744 95.3767 134.783 94.9565 134.807C94.3181 131.764 93.851 128.698 93.3528 125.64C93.2831 126.651 93.2209 127.663 93.174 128.682C92.7459 128.814 91.8898 129.072 91.4617 129.196C90.7221 127.663 90.0061 126.114 89.3291 124.558C88.6907 124.457 88.0602 124.356 87.4297 124.262C87.8499 123.321 87.9511 122.068 89.0176 121.609C91.5239 120.239 94.4662 118.971 95.3924 116.006C96.0383 115.694 96.6842 115.383 97.3304 115.072C97.844 114.068 98.3422 113.064 98.8872 112.084C99.1905 112.014 99.7977 111.874 100.101 111.811Z" fill="#EE664F"/>
<path d="M75.5439 117.398C76.0811 117.157 77.1475 116.675 77.6847 116.434C76.5092 117.974 75.1627 119.616 75.1237 121.655C74.5243 127.912 78.0581 133.6 81.6151 138.433C82.5804 139.616 83.3353 140.946 83.8256 142.394C80.2375 139.188 77.4665 135.118 75.4352 130.776C73.598 126.612 72.6174 121.32 75.5439 117.398Z" fill="#C13925"/>
<path d="M202.291 118.752C203.264 118.006 205.249 118.231 205.716 119.484C205.132 120.636 202.353 119.936 202.291 118.752Z" fill="#AAC0C2"/>
<path d="M65.1836 121.103C65.6196 121.5 65.6196 121.5 65.1836 121.103V121.103Z" fill="#9D422D"/>
<path d="M201.568 124.278C201.84 124.138 202.385 123.865 202.657 123.733C203.077 124.2 203.934 125.142 204.362 125.608C203.988 125.998 203.241 126.784 202.868 127.173C202.727 129.242 202.494 131.305 202.151 133.359C202.276 131.756 202.354 130.153 202.369 128.558C202.097 128.285 201.552 127.749 201.28 127.484L200.852 127.087C201.069 126.145 201.311 125.204 201.568 124.278Z" fill="#6D8080"/>
<path d="M251.086 124.752C252.977 124.075 255.514 123.328 257.172 124.892C258.34 126.729 257.017 128.916 256.044 130.542C252.642 135.421 247.677 138.9 242.89 142.308C239.582 144.471 236.382 147.179 232.358 147.864C232.794 145.265 233.067 142.643 233.69 140.09C235.231 139.079 236.032 137.312 237.286 135.997C241.177 131.515 245.497 127.056 251.086 124.752Z" fill="#1C444C"/>
<path d="M93.3528 125.64C93.851 128.698 94.318 131.764 94.9564 134.807C95.3766 134.783 96.2096 134.744 96.6219 134.729C96.9023 132.69 97.2835 130.667 97.8751 128.706C98.6221 130.278 99.385 131.857 100.203 133.398C100.809 131.927 101.362 130.433 101.86 128.916C102.942 130.643 104.546 131.919 105.822 133.484C106.001 134.768 105.83 136.075 105.729 137.359C103.666 140.487 103.713 144.254 102.693 147.724C97.9763 147.499 93.2516 147.343 88.5347 147.109C87.8577 146.394 87.165 145.686 86.4644 145.001C86.0907 144.619 85.7173 144.246 85.3357 143.88C84.8375 143.374 84.3318 142.876 83.8258 142.394C83.3354 140.946 82.5805 139.616 81.6152 138.433C81.7633 136.542 82.0043 134.659 82.3158 132.791C83.2732 132.978 84.2227 133.157 85.1801 133.351C85.4838 133.095 86.0985 132.581 86.4022 132.324C87.0559 132.402 87.7175 132.488 88.3792 132.573C89.0018 132.169 89.6323 131.779 90.2628 131.382C90.9709 132.527 91.8117 133.6 92.9948 134.285C93.0806 132.417 93.1039 130.55 93.174 128.682C93.2204 127.663 93.2827 126.651 93.3528 125.64Z" fill="#E3402E"/>
<path d="M201.279 127.484C201.551 127.749 202.096 128.285 202.368 128.558C202.353 130.153 202.275 131.756 202.15 133.359C201.45 138.355 200.563 143.491 198.103 147.965C199.449 147.398 201.559 147.826 201.201 149.685C200.944 151.374 199.123 150.876 198.002 150.541C197.947 149.942 197.854 148.744 197.807 148.152C197.052 150.074 196.118 151.919 195.192 153.763C193.845 153.903 192.491 153.997 191.152 154.144C191.899 154.035 192.662 153.934 193.425 153.833C195.425 150.206 197.465 146.565 198.788 142.62C200.313 137.725 201.029 132.596 201.279 127.484Z" fill="#0B0C0C"/>
<path d="M72.9134 131.165C73.9799 131.001 74.3848 131.46 74.1276 132.542C73.0536 132.705 72.6488 132.246 72.9134 131.165Z" fill="#B3563A"/>
<path d="M29.7768 139.546C30.3061 137.227 33.5831 136.728 35.0698 138.386C36.0816 139.546 36.5097 141.086 36.8676 142.557C36.922 143.833 37.9416 145.647 36.5951 146.557C36.3383 146.814 35.8248 147.312 35.5755 147.561C31.7771 147.094 29.4031 143.148 29.7768 139.546Z" fill="black"/>
<path d="M77.638 138.339C78.7667 138.511 80.4401 139.849 80.292 141.117C78.9534 141.616 77.3423 139.592 77.638 138.339Z" fill="#C4583A"/>
<path d="M129.998 140.308C131.002 139.779 131.998 139.242 132.971 138.674C133.033 143.872 133.064 149.078 133.111 154.284C133.461 156.385 134.59 158.331 134.551 160.502C134.777 163.482 133.78 166.338 133.197 169.21C133.119 172.105 133.43 175.007 133.095 177.894C132.504 176.003 132.045 174.074 131.648 172.136C130.963 172.945 130.324 173.801 129.904 174.782C128.207 178.213 125.133 180.719 122.043 182.851C122.681 180.921 123.467 179.046 124.308 177.194C124.736 177.505 125.164 177.824 125.6 178.135C127.375 174.657 128.308 170.86 129.453 167.14C130.745 163.731 131.679 160.09 130.831 156.44C130.332 159.654 130.044 162.953 128.721 165.965C127.857 167.653 126.767 169.21 125.6 170.696C124.931 168.821 124.113 167.008 123.218 165.233C122.432 166.377 121.646 167.529 120.86 168.673C120.292 168.657 119.723 168.649 119.155 168.642C119.139 168.906 119.116 169.443 119.101 169.708C116.742 169.786 114.36 169.778 112.072 169.14C113.076 167.864 114.182 166.673 115.334 165.529C116.096 165.918 116.859 166.315 117.63 166.72C120.424 165.568 123.203 164.253 126.246 163.918C129.126 161.918 129.624 158.121 129.888 154.884C129.982 150.028 129.865 145.164 129.998 140.308ZM131.337 144.386C131.765 144.806 131.765 144.806 131.337 144.386V144.386ZM131.399 153.739C131.803 154.167 131.803 154.167 131.399 153.739V153.739Z" fill="#46696E"/>
<path d="M260.722 141.475C262.248 140.884 264.334 142.472 263.346 144.074C262.925 145.366 261.392 145.25 260.349 144.907C258.948 144.222 259.15 141.787 260.722 141.475Z" fill="#86231C"/>
<path d="M131.336 144.386C131.764 144.806 131.764 144.806 131.336 144.386V144.386Z" fill="#9BB9BC"/>
<path d="M86.4639 145C87.1645 145.686 87.8572 146.394 88.5346 147.109C93.2514 147.343 97.9758 147.499 102.693 147.724C104.444 147.802 106.195 147.942 107.947 148.028C106.187 150.23 103.915 152.043 102.553 154.549C101.432 156.401 101.113 158.572 100.521 160.619C100.28 160.844 99.8051 161.296 99.5636 161.521C95.3682 157.21 92.1617 152.059 87.9974 147.74L88.192 147.047C87.8261 146.604 87.0869 145.717 86.7132 145.273L86.4639 145Z" fill="#010101"/>
<path d="M205.358 145.833C206.533 146.067 206.704 148.424 205.599 148.79C205.288 148.409 204.673 147.646 204.361 147.265C204.611 146.907 205.109 146.191 205.358 145.833Z" fill="#828D8B"/>
<path d="M240.212 149.802C242.54 148.261 245.085 147.063 247.342 145.405C248.222 146.067 249.265 147.327 248.191 148.362C246.314 150.051 244.042 151.304 241.73 152.284C240.298 152.884 239.169 150.751 240.212 149.802Z" fill="#89221E"/>
<path d="M35.575 147.561C35.8243 147.312 36.3378 146.814 36.5946 146.557C38.6342 153.444 41.8797 159.895 44.2147 166.673C48.5035 178.618 53.6795 190.205 58.5212 201.932C59.1513 203.388 59.5562 204.913 59.9764 206.438C60.5758 204.142 59.3695 201.847 59.0891 199.566C57.3224 189.334 56.5828 178.96 55.3064 168.665C52.769 168.657 50.7609 166.152 51.9128 163.724C52.4342 160.479 57.7505 159.56 58.6767 163.031C60.2568 163.459 59.8054 165.646 59.5097 166.836C59.1749 168.478 57.5091 169.077 56.1858 169.739C58.4743 184.159 59.9921 198.812 64.5688 212.741C63.8138 202.703 65.4872 192.672 66.686 182.727C68.344 184.12 67.9623 186.423 68.1494 188.345C68.1183 191.59 67.7989 194.812 67.6823 198.057C67.5189 200.742 67.3708 203.426 67.3318 206.119C67.3165 213.737 67.4409 221.433 69.13 228.904C69.3789 229.931 69.2155 230.989 69.1143 232.032C71.6363 237.355 74.3293 242.631 76.213 248.234L76.8124 248.203C76.9916 246.047 77.0459 243.853 77.7308 241.791C77.9801 241.682 78.4704 241.479 78.7193 241.378C78.3691 244.989 77.6997 248.592 77.832 252.234C78.6027 254.568 79.5132 256.848 80.2682 259.183C79.9181 259.175 79.2096 259.167 78.8595 259.16C76.1819 251.362 73.0998 243.705 69.5581 236.265C68.0324 233.145 66.7872 229.853 64.7401 227.013C57.4236 216.694 47.6162 208.524 37.8478 200.625C40.3466 211.364 42.5882 222.258 43.0707 233.301C42.5882 231.814 42.1834 230.313 41.6931 228.842C41.4906 229.55 41.0937 230.966 40.8912 231.674L40.9302 230.803C40.9535 230.297 41.0003 229.285 41.0236 228.78L42.0743 228.865C39.8326 218.842 38.7197 208.516 35.4506 198.757C30.4848 193.956 24.6082 190.244 18.8638 186.454C15.7349 188.68 19.0194 193.909 16.0074 196.337C15.1513 195.715 13.7812 194.688 14.8476 193.559C16.0929 191.691 16.599 189.481 17.3693 187.404C14.2014 187.956 9.4613 185.092 11.1035 181.505C13.9993 177.14 21.1213 181.723 19.2687 186.26C24.5613 189.007 29.6751 192.104 34.4932 195.613C30.6404 183.591 23.3318 173.101 15.8129 163.109C13.3141 163.506 10.3486 162.899 9.19664 160.393C8.02935 157.179 12.3567 154.775 14.98 156.191C17.4784 157.14 19.2451 160.759 16.3497 162.401C25.0985 172.501 32.4539 184.05 36.6572 196.797C37.7934 198.259 39.5215 199.138 40.9145 200.353C47.4996 205.309 53.7185 210.734 59.5873 216.523C55.9523 210.484 51.1267 205.278 47.1491 199.481C43.4834 193.302 39.3967 187.357 36.1976 180.921C33.7071 181.108 30.6325 180.571 29.7531 177.84C28.461 174.727 31.4265 171.295 34.6334 171.568C36.797 172.027 38.2759 174.112 38.7429 176.175C39.1245 177.879 37.7154 179.178 36.9219 180.509C40.471 185.451 43.8024 190.54 47.2428 195.544C51.2902 201.979 56.4351 207.621 60.6616 213.932C61.8447 215.628 62.7473 217.542 64.1954 219.052C62.9033 215.146 61.8057 211.185 60.638 207.247C59.019 206.329 58.5365 204.415 57.665 202.913C51.8273 190.742 46.2697 178.385 42.0743 165.537C40.0118 159.506 37.7781 153.537 35.575 147.561Z" fill="#223035"/>
<path d="M188.094 148.969C189.666 147.187 191.527 150.783 189.674 151.522C188.297 152.316 187.036 150.051 188.094 148.969Z" fill="#BE403A"/>
<path d="M210.238 150.409C210.846 149.172 212.184 148.277 213.531 149.141C214.574 149.997 213.811 151.265 212.947 151.903C211.756 152.643 211.017 150.962 210.238 150.409Z" fill="#232324"/>
<path d="M223.237 149.919C224.754 148.541 226.592 150.549 225.439 152.043C224.303 153.919 221.727 151.366 223.237 149.919Z" fill="#15181B"/>
<path d="M131.398 153.739C131.803 154.167 131.803 154.167 131.398 153.739V153.739Z" fill="#92AEB2"/>
<path d="M184.42 153.973C186.397 151.957 187.067 156.969 184.856 156.572C183.183 157 183.541 154.595 184.42 153.973Z" fill="#D1371B"/>
<path d="M191.153 154.144C192.492 153.996 193.846 153.903 195.192 153.763C203.739 152.207 211.686 157.249 217.633 162.867C219.929 165.28 223.338 165.56 226.366 166.416C227.027 166.626 227.689 166.836 228.358 167.031L228.864 166.642L229.331 166.284L230.055 167.599C229.176 168.136 228.288 168.673 227.409 169.21C227.868 170.657 227.969 172.72 229.752 173.179C231.643 173.816 233.487 174.657 234.686 176.33C233.853 176.75 233.013 177.163 232.164 177.552C225.19 179.194 220.364 184.867 216.146 190.252C213.554 194.026 210.837 197.738 207.607 200.998C209.335 194.788 211.888 188.765 212.674 182.322C213.056 179.295 212.651 176.066 210.861 173.513C208.471 169.793 204.027 167.661 199.676 167.552C196.936 167.381 194.103 167.428 191.527 166.33C188.942 165.404 186.887 163.545 184.708 161.957C185.144 158.37 186.911 154.16 191.153 154.144ZM209.934 164.782C209.522 166.066 209.95 166.486 211.227 166.043C211.624 164.766 211.188 164.346 209.934 164.782ZM206.735 167.023C205.607 167.817 206.922 169.824 208.051 168.898C209.063 168.089 207.864 166.113 206.735 167.023ZM216.979 166.906C216.052 168.081 218.115 169.264 218.886 168.144C219.765 166.992 217.734 165.817 216.979 166.906ZM211.491 168.548C209.927 169.42 211.11 172.548 212.908 171.42C215.165 170.805 213.383 166.867 211.491 168.548ZM225.354 171.513C224.949 172.766 225.377 173.202 226.661 172.82C227.058 171.56 226.622 171.124 225.354 171.513ZM217.936 173.155C217.204 174.198 219.026 175.225 219.742 174.322C220.575 173.241 218.644 172.19 217.936 173.155ZM223.96 175.528C222.715 175.809 223.252 177.809 224.467 177.459C225.751 177.209 225.237 175.069 223.96 175.528Z" fill="#D1371B"/>
<path d="M159.481 164.727C161.061 163.412 162.649 166.198 161.342 167.404C159.808 167.926 158.29 165.895 159.481 164.727Z" fill="#D1371B"/>
<path d="M115.333 165.529C119.707 161.405 124.58 157.724 129.888 154.884C129.624 158.121 129.126 161.918 126.245 163.918C123.202 164.253 120.423 165.568 117.629 166.72C116.859 166.315 116.096 165.918 115.333 165.529Z" fill="#617D80"/>
<path d="M149.495 159.451C148.374 156.533 153.348 154.619 154.889 157.008C157.496 160.471 158.501 166.066 155.263 169.451C154.788 167.428 154.321 165.397 153.955 163.35C153.823 163.257 153.558 163.062 153.426 162.969C153.877 164.735 154.352 166.51 154.624 168.323C154.391 168.517 153.924 168.898 153.69 169.085L153.036 169.607C150.709 166.712 150.374 162.922 149.495 159.451Z" fill="#456D74"/>
<path d="M251.133 155.996C252.425 155.047 254.317 156.813 253.725 158.23C252.736 159.895 251.53 161.451 250.137 162.797C247.864 163.653 246.237 159.965 248.214 158.759C249.381 158.05 250.246 157.008 251.133 155.996Z" fill="#8B231E"/>
<path d="M128.721 165.965C130.044 162.953 130.332 159.654 130.83 156.44C131.678 160.09 130.745 163.731 129.452 167.14C129.265 166.852 128.9 166.261 128.721 165.965Z" fill="#2C4347"/>
<path d="M179.353 160.393C179.548 159.436 179.719 158.478 179.945 157.529C180.015 158.619 179.976 159.7 179.813 160.782C181.463 161.023 183.206 161.148 184.708 161.957C186.888 163.545 188.943 165.404 191.527 166.33C194.103 167.428 196.936 167.381 199.676 167.552C204.027 167.661 208.472 169.793 210.861 173.513C207.359 171.754 203.716 174.416 202.377 177.661C202.299 176.735 202.237 175.809 202.167 174.883C200.758 175.513 199.349 176.112 197.925 176.696C197.45 175.972 196.968 175.248 196.5 174.525C195.286 175.35 194.087 176.198 192.912 177.07C193.286 176.221 193.652 175.373 194.025 174.525C193.138 174.945 192.259 175.373 191.371 175.801C190.959 175.062 190.546 174.322 190.133 173.591C188.149 173.957 186.608 172.883 185.354 171.459C185.323 171.825 185.261 172.556 185.23 172.921C184.732 172.642 184.241 172.361 183.751 172.089C182.615 172.681 181.408 172.634 180.303 172.011C179.19 173.062 178.1 174.136 177.01 175.217C177.407 175.63 177.797 176.042 178.193 176.462C177.228 177.513 176.411 178.688 175.781 179.964C175.968 180.19 176.349 180.657 176.536 180.882C177.773 181.24 178.956 181.77 180.069 182.416C179.602 183.855 179.136 185.295 178.668 186.742C177.952 185.575 177.104 184.509 176.17 183.513C175.859 183.17 175.547 182.828 175.243 182.485C171.905 178.929 168.931 174.136 170.254 169.054C171.048 164.751 174.738 161.669 178.839 160.626L179.353 160.393Z" fill="#EC634C"/>
<path d="M166.175 159.016C168.036 158.066 169.133 160.673 168.495 162.105C166.751 162.961 165 160.416 166.175 159.016Z" fill="#CB3D2C"/>
<path d="M99.5638 161.521C99.8052 161.296 100.28 160.844 100.521 160.619C101.416 169.109 104.086 177.272 106.001 185.559C106.421 179.637 108.18 173.739 112.072 169.14C114.36 169.778 116.742 169.786 119.101 169.708C119.116 169.443 119.139 168.906 119.155 168.642C119.723 168.649 120.292 168.657 120.859 168.673C121.646 167.529 122.432 166.377 123.218 165.233C124.113 167.008 124.93 168.821 125.6 170.696C126.767 169.21 127.857 167.653 128.721 165.965C128.9 166.26 129.266 166.852 129.453 167.14C128.308 170.86 127.374 174.657 125.6 178.135C125.164 177.824 124.736 177.505 124.308 177.194C123.467 179.046 122.681 180.921 122.043 182.851C118.914 185.03 115.302 186.322 111.971 188.135C112.033 187.676 112.158 186.758 112.22 186.299C114.57 184.369 116.734 182.244 118.805 180.026C117.894 180.275 116.983 180.525 116.08 180.773C116.703 179.466 117.326 178.166 117.91 176.851C115.707 179.357 114.267 182.431 111.955 184.851C110.375 186.828 107.962 188.734 108.172 191.536C109.021 196.765 111.512 201.551 113.1 206.578C115.551 214.22 118.431 221.784 119.715 229.729C120.245 232.694 120.4 235.713 120.081 238.717C119.645 238.079 119.225 237.441 118.812 236.795C117.396 226.165 115.139 215.613 111.084 205.652L110.951 205.255C110.826 204.889 110.585 204.158 110.461 203.792C108.523 203.341 106.468 203.084 104.81 201.893C102.179 198.882 99.2137 196.104 97.3379 192.524C98.7076 192.065 100.093 191.621 101.471 191.178C101.362 190.298 101.253 189.419 101.144 188.54C102.148 188.337 103.16 188.135 104.164 187.933C105.028 189.427 105.884 190.921 106.787 192.4C103.487 182.346 100.957 172.019 99.5638 161.521ZM120.151 178.54C121.864 177.287 123.475 175.793 124.339 173.816C122.72 175.163 121.008 176.548 120.151 178.54Z" fill="#33555D"/>
<path d="M153.426 162.969C153.558 163.062 153.823 163.257 153.955 163.35C154.321 165.397 154.788 167.428 155.263 169.451C155.589 174.291 155.909 179.155 156.983 183.902C159.575 195.551 163.334 207.076 169.421 217.403C170.674 219.605 172.238 221.597 173.904 223.504C173.756 221.652 173.632 219.76 174.566 218.08C175.445 206.236 174.511 194.329 175.243 182.486C175.547 182.828 175.858 183.17 176.169 183.513C175.764 189.318 175.951 195.139 176.379 200.936C178.084 198.827 179.664 196.617 181.291 194.446C181.4 194.773 181.61 195.427 181.719 195.754C180.497 198.648 178.294 200.913 176.589 203.496C176.053 207.777 176.613 212.158 176.2 216.469C175.912 219.901 176.364 223.348 176.045 226.787C175.85 228.546 175.687 230.32 175.866 232.095C176.333 238.608 176.286 245.246 177.819 251.619C178.427 252.903 179.065 254.187 179.68 255.471L179.742 255.603C178.543 256.164 177.796 257.168 178.022 258.521C177.92 261.198 178.076 263.875 178.504 266.521C179.065 273.579 179.563 280.661 179.477 287.75C178.847 284.661 177.811 281.649 177.648 278.49C177.368 270.84 177.376 263.051 175.593 255.588C176.239 250.374 175.079 245.145 174.978 239.931C175.025 238.343 173.484 237.472 172.628 236.359C172.838 236.009 173.258 235.316 173.468 234.966C173.811 235.908 174.184 236.834 174.589 237.76C174.473 233.877 174.815 229.955 173.966 226.134C171.305 224.212 169.53 221.402 167.996 218.562C164.564 212.111 161.661 205.364 159.489 198.384C159.458 198.282 159.38 198.081 159.341 197.971C156.259 188.61 154.897 178.75 154.687 168.914L153.69 169.085C153.924 168.899 154.391 168.517 154.624 168.323C154.352 166.51 153.877 164.735 153.426 162.969Z" fill="#090D0E"/>
<path d="M-13.4534 169.07C-13.4301 166.346 -10.8226 164.151 -8.16077 164.299C-4.89163 164.362 -2.26837 166.883 -0.851784 169.638C0.471466 172.112 0.370253 174.992 0.697127 177.707C1.343 176.377 1.75573 174.432 3.52243 174.206C5.98186 174.533 7.06409 177.147 7.53865 179.272C8.23138 181.816 7.79582 184.462 7.274 186.999C9.26675 186.968 11.7262 187.894 11.8896 190.19C12.3567 193.465 9.36796 195.543 7.32086 197.567C9.43806 198.174 11.4615 199.862 10.9559 202.298C9.88939 207.099 4.94689 209.286 1.56866 212.282C1.00825 210.158 0.595916 208.002 0.339142 205.823C3.97375 203.076 5.56952 198.555 5.84993 194.143C5.35174 194.166 4.35536 194.221 3.8493 194.244C2.9309 196.781 1.86443 199.318 -0.0424719 201.278C-0.283886 199.629 -0.602882 197.979 -0.548141 196.306C0.510065 194.306 2.46382 192.859 3.16444 190.672C4.03636 187.769 3.6004 184.719 3.32788 181.77C2.80645 181.746 1.76321 181.707 1.23391 181.692C0.829454 185.131 1.35088 189.225 -1.53703 191.754C-2.58776 187.513 -3.49828 183.194 -5.35083 179.202C-6.99308 181.56 -5.98135 184.462 -5.62336 187.038C-4.48678 192.944 -3.83303 198.929 -2.87564 204.866C-2.57201 206.562 -2.48655 208.305 -2.891 209.994C-6.57287 207.668 -9.35918 204.197 -11.6788 200.578C-12.932 198.477 -14.1382 195.909 -13.2899 193.442C-12.6831 192.042 -10.916 191.972 -9.68605 191.45C-12.496 190.042 -15.3839 187.341 -14.4809 183.863C-14.1461 181.552 -11.5933 181.163 -9.67857 181.217C-11.5776 177.42 -13.8271 173.482 -13.4534 169.07Z" fill="#ADC1B6"/>
<path d="M209.935 164.782C211.188 164.346 211.624 164.766 211.227 166.043C209.95 166.486 209.522 166.066 209.935 164.782Z" fill="#4D150B"/>
<path d="M74.2676 167.366C75.1395 166.875 76.0579 166.696 77.0228 166.836C78.2759 170.089 78.4551 173.661 79.9418 176.828C83.6934 185.217 89.0017 193.061 96.0461 199.03C97.3457 202.337 100.638 203.707 103.798 204.695C103.588 204.866 103.16 205.201 102.95 205.364C102.428 205.302 101.378 205.177 100.848 205.115C98.4122 204.251 96.0224 203.255 93.7343 202.049C92.808 201.559 91.8897 201.03 90.9634 200.547C90.644 200.36 90.006 199.995 89.6791 199.816C89.3908 198.049 87.6552 197.637 86.41 196.781C85.3514 194.524 82.6426 192.999 83.133 190.236C82.5493 190.042 81.9731 189.855 81.3974 189.668C80.2143 187.108 79.3967 184.376 77.9101 181.964C78.385 181.925 79.327 181.848 79.8016 181.801C79.1711 181.637 77.9179 181.303 77.2874 181.139C77.6844 180.742 78.4862 179.956 78.8832 179.56C78.502 179.575 77.7313 179.614 77.3496 179.63C76.5013 175.505 76.2989 171.14 74.2676 167.366Z" fill="#4A6B71"/>
<path d="M77.0225 166.836C77.2871 167.031 77.8239 167.412 78.0964 167.607C78.9605 171.023 79.2251 174.735 81.3344 177.692C85.9891 184.392 89.8572 191.816 96.1229 197.209C96.4112 197.645 96.987 198.508 97.2674 198.944L96.0454 199.03C89.001 193.061 83.6927 185.217 79.9411 176.828C78.4544 173.661 78.2756 170.089 77.0225 166.836Z" fill="#0E1E23"/>
<path d="M206.735 167.023C207.864 166.113 209.062 168.089 208.051 168.899C206.922 169.824 205.607 167.817 206.735 167.023Z" fill="#6D1D13"/>
<path d="M216.979 166.906C217.734 165.817 219.765 166.992 218.886 168.144C218.115 169.264 216.053 168.081 216.979 166.906Z" fill="#4A130C"/>
<path d="M78.0967 167.607C88.2774 172.05 97.9679 178.509 104.164 187.933C103.16 188.135 102.148 188.337 101.144 188.54C101.253 189.419 101.362 190.299 101.471 191.178C100.093 191.621 98.7075 192.065 97.3378 192.524C96.8939 191.909 96.4426 191.31 95.9755 190.727C96.3567 192.578 96.8238 194.415 97.3531 196.228C97.9836 196.726 98.6141 197.232 99.2521 197.738C98.2014 197.575 97.1586 197.403 96.1232 197.209C89.8575 191.816 85.9893 184.392 81.3347 177.692C79.2254 174.735 78.9607 171.023 78.0967 167.607Z" fill="#44676D"/>
<path d="M230.054 167.599L230.646 167.233C235.005 169.311 238.71 172.766 240.656 177.225C237.838 177.63 234.997 177.614 232.164 177.552C233.012 177.163 233.853 176.75 234.686 176.33C233.487 174.657 231.642 173.816 229.751 173.179C227.969 172.72 227.867 170.657 227.408 169.21C228.288 168.673 229.175 168.136 230.054 167.599Z" fill="#D7462A"/>
<path d="M243.38 167.77C245.015 166.4 246.727 169.342 244.851 169.98C243.123 170.696 242.804 169 243.38 167.77Z" fill="#94473F"/>
<path d="M250.572 167.825C251.694 166.945 253.328 167.514 252.666 169.116C252.277 171.132 248.985 169.35 250.572 167.825Z" fill="#874241"/>
<path d="M211.491 168.548C213.383 166.867 215.165 170.805 212.908 171.42C211.11 172.548 209.927 169.42 211.491 168.548Z" fill="#421410"/>
<path d="M64.5301 175.949C62.7945 172.821 66.1026 167.996 69.7451 169.49C73.7227 171.124 73.2789 178.315 68.5853 178.618C68.4065 178.649 68.056 178.727 67.8851 178.766C67.5424 178.525 67.2077 178.283 66.8808 178.034C66.0636 177.373 65.1606 176.789 64.5301 175.949Z" fill="#2A3639"/>
</g>
</svg>
